/* XPM */
static char * xpm_data[] = {
"64 64 37 1",
"0 c None",
"1 c #980000",
"2 c #fc0000",
"3 c #ec0000",
"4 c #fc9c9c",
"5 c #fc5454",
"6 c #fc5c5c",
"7 c #fcfc54",
"8 c #a8a8a8",
"9 c #7c7c7c",
"a c #8c8c8c",
"b c #d0d0d0",
"c c #b4b4b4",
"d c #484848",
"e c #2c2c2c",
"f c #989898",
"g c #646464",
"h c #545454",
"i c #707070",
"j c #000000",
"k c #202020",
"l c #a86840",
"m c #f0945c",
"n c #b47044",
"o c #fcb080",
"p c #543c1c",
"q c #fca470",
"r c #fcc4a4",
"s c #fcd8c4",
"t c #c87c4c",
"u c #744c28",
"v c #80502c",
"w c #e88c58",
"x c #dc8854",
"y c #fcb890",
"z c #fc9c60",
"A c #a0643c",
"0000000000000000000000000000000000000000000000000000000000000000",
"0000000000000000000000000000000000000000000000000000000000000000",
"0000000000000000000000000000000000000000000000000000000000000000",
"0000000000000000000000000000000000000000000000000000000000000000",
"0000000000000000000000000000000000000000000000000000000000000000",
"0000000000000000000000000000000000000000000000000000000000000000",
"0000000000000000000000000000000000000000000000000000000000000000",
"0000000000000000000000000000000000000000000000000000000000000000",
"0000000000000000000000000000000000000000000000000000000000000000",
"0000000000000000000000000000000000000000000000000000000000000000",
"0000000000000000000000000000000000000000000000000000000000000000",
"0000000000000000000000000000000000000000000000000000000000000000",
"0000000000000000000000000000000000000000000000000000000000000000",
"0000000000000000000000000000000000000000000000000000000000000000",
"0000000000000000000000000000000000000000000000000000000000000000",
"0000000000000000000000000000000000000000000000000000000000000000",
"0000000000000000000000000000000000000000000000000000000000000000",
"0000000000000000000000000000000000000000000000000000000000000000",
"0000000000000000000000000000000000000000000000000000000000000000",
"0000000000000000000000000000000000000000000000000000000000000000",
"0000000000000000000000000000000000000000000000000000000000000000",
"0000000000000000000000000000000000000000000000000000000000000000",
"0000000000000000000000000000000000000000000000000000000000000000",
"0000000000000000000000000000000000000000000000000000000000000000",
"0000000000000000000000000000000000000000000000000000000000000000",
"0000000000000000000000000000000000000000000000000000000000000000",
"0000000000000000000000000000000000000000000000000000000000000000",
"0000000000000000000000000000000000000000000000000000000000000000",
"0000000000000000000000000000000000000000000000000000000000000000",
"0000000000000000000000000000000000000000000000000000000000000000",
"0000000000000000000000000000000000000000000000000000000000000000",
"0000000000000000000000000000000000000000000000000000000000000000",
"0000000000000000000000000000000000000000000000000000000000000000",
"0000000000000000000000000000000000000000000000000000000000000000",
"0000000000000000000000000000000000000000000000000000000000000000",
"0000000000000000000000000000000010000000000000000000000000000000",
"0000000000000000000000000000000121000000000000000000000000000000",
"0000000000000000000000000000200343002000000000000000000000000000",
"0000000000000000000000000000056646650000000000000000000000000000",
"0000000000000000000000000000034474530000000000000000000000000000",
"0000000000000000000000000000157898753000000000000000000000000000",
"0000000000000000000000000001648aba846100000000000000000000000000",
"0000000000000000000000000000139cbc931000000000000000000000000000",
"000000000000000000000000000000dcbcd00000000000000000000000000000",
"0000000000000000000000000000099d9d990000000000000000000000000000",
"0000000000000000000000000000e9feeeg9h000000000000000000000000000",
"0000000000000000000000000000e98i9ig9d000000000000000000000000000",
"0000000000000000000000000000e98fffg9e000000000000000000000000000",
"0000000000000000000000000000edf888ddj000000000000000000000000000",
"0000000000000000000000000000ek9dddjkjl00000000000000000000000000",
"000000000000000000000000000mekgeeejkjln0000000000000000000000000",
"00000000000000000000000000mookgeeejkpln0000000000000000000000000",
"00000000000000000000000000qrstjjjjkkunnn000000000000000000000000",
"00000000000000000000000000qosstvvvnwwxtn000000000000000000000000",
"0000000000000000000000000qoossssryoqwwxn000000000000000000000000",
"0000000000000000000000000qowosssryoqzwxt000000000000000000000000",
"0000000000000000000000000qoqwoooooqzzwxt000000000000000000000000",
"0000000000000000000000000moozzoooqqzzwxt000000000000000000000000",
"0000000000000000000000000fff88tmmmmmfff9900000000000000000000000",
"000000000000000000000000f88faigllAgf88ff9g0000000000000000000000",
"00000000000000000000000f88ff9ighdg9a88fff9g000000000000000000000",
"0000000000000000000000f88ff99ighhg9afaaaffgh00000000000000000000",
"000000000000000000000099ff9iggghhg9g9f88ff9gd0000000000000000000",
"000000000000000000000cf88ff99ighhgggfff88f9gdd000000000000000000",
};
