/* XPM */
static char * xpm_data[] = {
"64 64 29 1",
"0 c None",
"1 c #383838",
"2 c #545454",
"3 c #707070",
"4 c #484848",
"5 c #7c7c7c",
"6 c #a8a8a8",
"7 c #646464",
"8 c #8c8c8c",
"9 c #989898",
"a c #2c2c2c",
"b c #b4b4b4",
"c c #b47044",
"d c #fca470",
"e c #000000",
"f c #fcbc9c",
"g c #202020",
"h c #bc7848",
"i c #c87c4c",
"j c #fcb080",
"k c #fcd8c4",
"l c #fcb890",
"m c #80502c",
"n c #e88c58",
"o c #dc8854",
"p c #fcc4a4",
"q c #fc9c60",
"r c #f0945c",
"s c #d08050",
"0000000000000000000000000000000000000000000000000000000000000000",
"0000000000000000000000000000000000000000000000000000000000000000",
"0000000000000000000000000000000000000000000000000000000000000000",
"0000000000000000000000000000000000000000000000000000000000000000",
"0000000000000000000000000000000000000000000000000000000000000000",
"0000000000000000000000000000000000000000000000000000000000000000",
"0000000000000000000000000000000000000000000000000000000000000000",
"0000000000000000000000000000000000000000000000000000000000000000",
"0000000000000000000000000000000000000000000000000000000000000000",
"0000000000000000000000000000000000000000000000000000000000000000",
"0000000000000000000000000000000000000000000000000000000000000000",
"0000000000000000000000000000000000000000000000000000000000000000",
"0000000000000000000000000000000000000000000000000000000000000000",
"0000000000000000000000000000000000000000000000000000000000000000",
"0000000000000000000000000000000000000000000000000000000000000000",
"0000000000000000000000000000000000000000000000000000000000000000",
"0000000000000000000000000000000000000000000000000000000000000000",
"0000000000000000000000000000000000000000000000000000000000000000",
"0000000000000000000000000000000000000000000000000000000000000000",
"0000000000000000000000000000000000000000000000000000000000000000",
"0000000000000000000000000000000000000000000000000000000000000000",
"0000000000000000000000000000000000000000000000000000000000000000",
"0000000000000000000000000000000000000000000000000000000000000000",
"0000000000000000000000000000000000000000000000000000000000000000",
"0000000000000000000000000000000000000000000000000000000000000000",
"0000000000000000000000000000000000000000000000000000000000000000",
"0000000000000000000000000000000000000000000000000000000000000000",
"0000000000000000000000000000000000000000000000000000000000000000",
"0000000000000000000000000000000000000000000000000000000000000000",
"0000000000000000000000000000000000000000000000000000000000000000",
"0000000000000000000000000000000000000000000000000000000000000000",
"0000000000000000000000000000000000000000000000000000000000000000",
"0000000000000000000000000000000000000000000000000000000000000000",
"0000000000000000000000000000000000000000000000000000000000000000",
"0000000000000000000000000000000010000000000000000000000000000000",
"0000000000000000000000000000000232000000000000000000000000000000",
"0000000000000000000000000000004565400000000000000000000000000000",
"0000000000000000000000000000004565400000000000000000000000000000",
"0000000000000000000000000000004565400000000000000000000000000000",
"0000000000000000000000000000004565400000000000000000000000000000",
"0000000000000000000000000000055787550000000000000000000000000000",
"0000000000000000000000000000755787557000000000000000000000000000",
"0000000000000000000000000000256141752000000000000000000000000000",
"0000000000000000000000000000299aaa754000000000000000000000000000",
"000000000000000000000000000026b353751000000000000000000000000000",
"000000000000000000000000000026bbbb74ac00000000000000000000000000",
"000000000000000000000000000d28b88844ecc0000000000000000000000000",
"00000000000000000000000000df225444agecc0000000000000000000000000",
"00000000000000000000000000df727aaaegehcc000000000000000000000000",
"00000000000000000000000000df527aaaee2ihc000000000000000000000000",
"0000000000000000000000000ddjj52eeeg2cihc000000000000000000000000",
"0000000000000000000000000ddjklimmmcnnoic000000000000000000000000",
"0000000000000000000000000djjkppppljdnnoc000000000000000000000000",
"0000000000000000000000000djnjppppljdqnoi000000000000000000000000",
"0000000000000000000000000djdnddddddqqnoi000000000000000000000000",
"0000000000000000000000000rjjnnqqqqqqnnsi000000000000000000000000",
"0000000000000000000000000ojjjosssssssssi000000000000000000000000",
"00000000000000000000000099995hhhhh555555700000000000000000000000",
"0000000000000000000000096669533ih2599955570000000000000000000000",
"0000000000000000000000096669553225599555570000000000000000000000",
"0000000000000000000000996983557225553337777000000000000000000000",
"0000000000000000000009666699377742535855577700000000000000000000",
"0000000000000000000006666995557242358885557700000000000000000000",
"0000000000000000000096669955577242358885555770000000000000000000",
};
