/* XPM */
static char * xpm_data[] = {
"37 60 3 1",
"0 c None",
"1 c #696b6d",
"2 c #dfdfdf",
"0000001222222222222222222222222200000",
"0000012222222222222222222222222220000",
"0000122222222222222222222222222221000",
"0001222222222222222222222222222222000",
"0012222222222222222222222222222222200",
"0122222222222222222222222222222222210",
"1222222222222222222222222222222222220",
"2222222222222222222222222222222222222",
"2222222222100000000000000002222222222",
"2222222221000000000000000000222222222",
"2222222220000000000000000000122222222",
"2222222210000000000000000000022222222",
"2222222210000000000000000000002222222",
"2222222210000000000000000000002222222",
"2222222210000000000000000000002222222",
"2222222210000000000000000000022222222",
"2222222210000000000000000000222222222",
"2222222210000000000000000002222222222",
"2222222210000000000000000022222222222",
"2222222210000000000000000222222222222",
"2222222210000000000000002222222222222",
"2222222210000000000000022222222222222",
"2222222210000000000000222222222222222",
"2222222210000000000002222222222222222",
"2222222210000000000022222222222222222",
"2222222210000000000222222222222222222",
"2222222210000000001222222222202222222",
"2222222210000000012222222222002222222",
"2222222210000000122222222220002222222",
"2222222210000001222222222210002222222",
"2222222210000012222222222100002222222",
"2222222210000122222222221000002222222",
"2222222210001222222222210000002222222",
"2222222210012222222222100000002222222",
"2222222210122222222221000000002222222",
"2222222211222222222210000000002222222",
"2222222222222222222100000000002222222",
"2222222222222222221000000000002222222",
"2222222222222222210000000000002222222",
"2222222222222222200000000000002222222",
"2222222222222222000000000000002222222",
"2222222222222220000000000000002222222",
"2222222222222200000000000000002222222",
"2222222222222000000000000000002222222",
"2222222222220000000000000000002222222",
"2222222222200000000000000000002222222",
"2222222222000000000000000000002222222",
"2222222220000000000000000000002222222",
"2222222220000000000000000000002222222",
"2222222221000000000000000000002222222",
"2222222222000000000000000000012222222",
"0222222222200000000000000000122222222",
"0122222222221111111111111111222222222",
"0022222222222222222222222222222222222",
"0002222222222222222222222222222222222",
"0001222222222222222222222222222222221",
"0000222222222222222222222222222222210",
"0000022222222222222222222222222222100",
"0000012222222222222222222222222221000",
"0000002222222222222222222222222210000",
};
