/* XPM */
static char * xpm_data[] = {
"40 59 3 1",
"0 c None",
"1 c #a2a2a4",
"2 c #dedede",
"0000000000000000111111110000000000000000",
"0000000000000002222222220000000000000000",
"0000000000000022222222220000000000000000",
"0000000000000222222222220000000000000000",
"0000000000002222222222220000000000000000",
"0000000000022222222222220000000000000000",
"0000000000222222222222220000000000000000",
"0000000002222222222222220000000000000000",
"0000000022222222222222220000000000000000",
"0000000222222222222222220000000000000000",
"0000002222222222222222220000000000000000",
"0000022222222222222222220000000000000000",
"0000222222222221222222220000000000000000",
"0002222222222201222222220000000000000000",
"0022222222222001222222220000000000000000",
"0122222222220001222222220000000000000000",
"0022222222200001222222220000000000000000",
"0012222222000001222222220000000000000000",
"0002222220000001222222220000000000000000",
"0000222210000001222222220000000000000000",
"0000122100000001222222220000000000000000",
"0000021000000001222222220000000000000000",
"0000000000000001222222220000000000000000",
"0000000000000001222222220000000000000000",
"0000000000000001222222220000000000000000",
"0000000000000001222222220000000000000000",
"0000000000000001222222220000000000000000",
"0000000000000001222222220000000000000000",
"0000000000000001222222220000000000000000",
"0000000000000001222222220000000000000000",
"0000000000000001222222220000000000000000",
"0000000000000001222222220000000000000000",
"0000000000000001222222220000000000000000",
"0000000000000001222222220000000000000000",
"0000000000000001222222220000000000000000",
"0000000000000001222222220000000000000000",
"0000000000000001222222220000000000000000",
"0000000000000001222222220000000000000000",
"0000000000000001222222220000000000000000",
"0000000000000001222222220000000000000000",
"0000000000000001222222220000000000000000",
"0000000000000001222222220000000000000000",
"0000000000000001222222220000000000000000",
"0000000000000001222222220000000000000000",
"0000000000000001222222220000000000000000",
"0000000000000001222222220000000000000000",
"0000000000000001222222220000000000000000",
"0000000000000001222222220000000000000000",
"0000000000000001222222220000000000000000",
"0000000000000001222222220000000000000000",
"0000000000000001222222220000000000000000",
"0000000000000001222222220000000000000000",
"0000000000000001222222220000000000000000",
"2222222222222222222222222222222222222220",
"2222222222222222222222222222222222222220",
"2222222222222222222222222222222222222220",
"2222222222222222222222222222222222222220",
"2222222222222222222222222222222222222220",
"2222222222222222222222222222222222222220",
};
