/* XPM */
static char * xpm_data[] = {
"39 59 3 1",
"0 c None",
"1 c #ababac",
"2 c #dedede",
"000000011111111111111111111111110000000",
"000000222222222222222222222222221000000",
"000002222222222222222222222222222000000",
"000022222222222222222222222222222200000",
"000222222222222222222222222222222210000",
"002222222222222222222222222222222220000",
"022222222222222222222222222222222222000",
"222222222222222222222222222222222222100",
"222222222200000000000000000122222222200",
"122222222000000000000000000022222222220",
"022222220000000000000000000002222222221",
"002222200000000000000000000001222222221",
"001222000000000000000000000000222222221",
"000220000000000000000000000000022222221",
"000000000000000000000000000000012222221",
"000000000000000000000000000000012222221",
"000000000000000000000000000000122222221",
"000000000000000000000000000001222222221",
"000000000000000000000000000012222222221",
"000000000000000000000000000022222222221",
"000000000000000000000000000222222222210",
"000000000000000000000000002222222222100",
"000000000000000000000000022222222221000",
"000000000000000000000000222222222210000",
"000000000000000000000002222222222100000",
"000000000000000000000022222222221000000",
"000000000000000000000222222222210000000",
"000000000000000000002222222222000000000",
"000000000000000000022222222222000000000",
"000000000000000000222222222220000000000",
"000000000000000002222222222200000000000",
"000000000000000022222222222000000000000",
"000000000000000222222222220000000000000",
"000000000000002222222222200000000000000",
"000000000000002222222222000000000000000",
"000000000000122222222220000000000000000",
"000000000001222222222200000000000000000",
"000000000012222222222000000000000000000",
"000000000122222222220000000000000000000",
"000000001222222222200000000000000000000",
"000000012222222222000000000000000000000",
"000000122222222220000000000000000000000",
"000001222222222200000000000000000000000",
"000012222222222000000000000000000000000",
"000122222222220000000000000000000000000",
"001222222222210000000000000000000000000",
"012222222222100000000000000000000000000",
"122222222221000000000000000000000000000",
"222222222210000000000000000000000000000",
"222222222100000000000000000000000000000",
"222222221000000000000000000000000000000",
"222222220000000000000000000000000000000",
"222222221000000000000000000000000000000",
"222222222222222222222222222222222222221",
"222222222222222222222222222222222222221",
"222222222222222222222222222222222222221",
"222222222222222222222222222222222222221",
"222222222222222222222222222222222222221",
"222222222222222222222222222222222222221",
};
