/* XPM */
static char * xpm_data[] = {
"40 59 3 1",
"0 c #dedfdf",
"1 c #6b6c6e",
"2 c None",
"0000000000000000000000000000000000000001",
"0000000000000000000000000000000000000001",
"0000000000000000000000000000000000000001",
"0000000000000000000000000000000000000001",
"0000000000000000000000000000000000000001",
"0000000000000000000000000000000000000001",
"0000000000000000000000000000000000000001",
"2222222222222222222222222222200000000001",
"2222222222222222222222222222000000000012",
"2222222222222222222222222220000000000122",
"2222222222222222222222222200000000001222",
"2222222222222222222222222000000000012222",
"2222222222222222222222220000000000122222",
"2222222222222222222222200000000001222222",
"2222222222222222222222000000000012222222",
"2222222222222222222220000000000222222222",
"2222222222222222222200000000002222222222",
"2222222222222222222000000000022222222222",
"2222222222222222220000000000222222222222",
"2222222222222222100000000002222222222222",
"2222222222222221000000000022222222222222",
"2222222222222210000000000222222222222222",
"2222222222222100000000002222222222222222",
"2222222222221000000000022222222222222222",
"2222222222221000000000000000002222222222",
"2222222222221000000000000000000122222222",
"2222222222221000000000000000000022222222",
"2222222222221000000000000000000022222222",
"2222222222221000000000000000000001222222",
"2222222222221000000000000000000000222222",
"2222222222221000000000000000000000222222",
"2222222222222222222222222200000000012222",
"2222222222222222222222222220000000002222",
"2222222222222222222222222210000000002222",
"2222222222222222222222222222000000000122",
"2222222222222222222222222222200000000022",
"2222222222222222222222222222200000000022",
"2222222222222222222222222222210000000001",
"2222222222222222222222222222222000000001",
"2222222222222222222222222222222000000001",
"2222222222222222222222222222222000000001",
"2222222222222222222222222222222000000001",
"2222222222222222222222222222222000000001",
"2222222222222222222222222222222000000001",
"2222222222222222222222222222222000000001",
"2222222222222222222222222222222000000001",
"2222222222222222222222222222222000000001",
"2222222222222222222222222222222000000001",
"2222222222222222222222222222222000000001",
"2222222222222222222222222222210000000001",
"2222222222222222222222222222100000000001",
"1111111111111111111111111111000000000001",
"0000000000000000000000000000000000000012",
"0000000000000000000000000000000000000122",
"0000000000000000000000000000000000001222",
"0000000000000000000000000000000000012222",
"0000000000000000000000000000000000122222",
"0000000000000000000000000000000001222222",
"0000000000000000000000000000000012222222",
};
