/* XPM */
static char * xpm_data[] = {
"42 60 3 1",
"0 c None",
"1 c #b4b4b5",
"2 c #dddddd",
"000000000000000000000000001111111111111000",
"000000000000000000000000012222222222222000",
"000000000000000000000000122222222222222000",
"000000000000000000000001222222222222222000",
"000000000000000000000012222222222222222000",
"000000000000000000000022222222222222222000",
"000000000000000000000222222222222222222000",
"000000000000000000002222222222222222222000",
"000000000000000000022222222221222222222000",
"000000000000000000222222222210222222222000",
"000000000000000002222222222100222222222000",
"000000000000000022222222221000222222222000",
"000000000000000222222222210000222222222000",
"000000000000002222222222000000222222222000",
"000000000000022222222222000000222222222000",
"000000000000222222222220000000222222222000",
"000000000002222222222200000000222222222000",
"000000000022222222222000000000222222222000",
"000000000222222222220000000000222222222000",
"000000002222222222200000000000222222222000",
"000000022222222222000000000000222222222000",
"000000222222222220000000000000222222222000",
"000002222222222200000000000000222222222000",
"000002222222222000000000000000222222222000",
"000122222222220000000000000000222222222000",
"001222222222200000000000000000222222222000",
"012222222222000000000000000000222222222000",
"122222222220000000000000000000222222222000",
"222222222200000000000000000000222222222000",
"122222222100000000000000000000222222222000",
"022222222210000000000000000000222222222000",
"002222222220000000000000000000222222222000",
"001222222221000000000000000000222222222000",
"000222222222222222222222222222222222222222",
"000022222222222222222222222222222222222222",
"000012222222222222222222222222222222222222",
"000002222222222222222222222222222222222222",
"000000222222222222222222222222222222222222",
"000000122222222222222222222222222222222222",
"000000022222222222222222222222222222222222",
"000000001111111111111111111111222222222111",
"000000000000000000000000000000222222222000",
"000000000000000000000000000000222222222000",
"000000000000000000000000000000222222222000",
"000000000000000000000000000000222222222000",
"000000000000000000000000000000222222222000",
"000000000000000000000000000000222222222000",
"000000000000000000000000000000222222222000",
"000000000000000000000000000000222222222000",
"000000000000000000000000000000222222222000",
"000000000000000000000000000000222222222000",
"000000000000000000000000000000222222222000",
"000000000000000000000000000000222222222000",
"000000000000000000000000000000222222222000",
"000000000000000000000000000000222222222000",
"000000000000000000000000000000222222222000",
"000000000000000000000000000000222222222000",
"000000000000000000000000000000222222222000",
"000000000000000000000000000000222222222000",
"000000000000000000000000000000222222222000",
};
