/* XPM */
static char * xpm_data[] = {
"40 60 3 1",
"0 c #747678",
"1 c None",
"2 c #dedede",
"0111111111111111111111111111111111111111",
"0222222222222222222222222222222222222211",
"0222222222222222222222222222222222222211",
"0222222222222222222222222222222222222211",
"0222222222222222222222222222222222222211",
"0222222222222222222222222222222222222211",
"0222222222222222222222222222222222222211",
"0222222222222222222222222222222222222211",
"0222222220111111111111111111111111111111",
"0222222220111111111111111111111111111111",
"0222222220111111111111111111111111111111",
"0222222220111111111111111111111111111111",
"0222222220111111111111111111111111111111",
"0222222220111111111111111111111111111111",
"0222222220111111111111111111111111111111",
"0222222220111111111111111111111111111111",
"0222222220111111111111111111111111111111",
"0222222220111111111111111111111111111111",
"0222222221000000000000000000001111111111",
"0222222222222222222222222222221111111111",
"1222222222222222222222222222222011111111",
"1022222222222222222222222222222211111111",
"1112222222222222222222222222222211111111",
"1111222222222222222222222222222221111111",
"1110222222222222222222222222222222011111",
"1111122222222222222222222222222222111111",
"1111100000000000000000000122222222211111",
"1111111111111111111111111112222222220111",
"1111111111111111111111111111222222222111",
"1111111111111111111111111110222222222111",
"1111111111111111111111111111122222222201",
"1111111111111111111111111111112222222221",
"1111111111111111111111111111112222222221",
"1111111111111111111111111111110222222222",
"1111111111111111111111111111111222222222",
"1111111111111111111111111111111222222222",
"1111111111111111111111111111111222222222",
"1111111111111111111111111111111222222222",
"1111111111111111111111111111111222222222",
"1111111111111111111111111111111222222222",
"1111111111111111111111111111111222222222",
"1111111111111111111111111111111222222222",
"1111111111111111111111111111111222222222",
"1111111111111111111111111111111222222222",
"1111111111111111111111111111111222222222",
"1111111111111111111111111111111222222222",
"1111111111111111111111111111111222222222",
"1111111111111111111111111111111222222222",
"1111111111111111111111111111111222222222",
"1111111111111111111111111111111222222222",
"1111111111111111111111111111111222222222",
"1111111111111111111111111111102222222222",
"0000000000000000000000000000122222222221",
"0222222222222222222222222222222222222211",
"0222222222222222222222222222222222222111",
"0222222222222222222222222222222222222111",
"0222222222222222222222222222222222221111",
"0222222222222222222222222222222222211111",
"0222222222222222222222222222222222111111",
"0222222222222222222222222222222220111111",
};
