/* XPM */
static char * xpm_data[] = {
"39 59 3 1",
"0 c None",
"1 c #a0a0a2",
"2 c #dedede",
"000000122222222222222222222222222000000",
"000001222222222222222222222222222000000",
"000012222222222222222222222222222000000",
"000122222222222222222222222222222000000",
"001222222222222222222222222222222000000",
"012222222222222222222222222222222000000",
"122222222222222222222222222222222000000",
"222222222210000000000000000000000000000",
"222222222100000000000000000000000000000",
"222222222000000000000000000000000000000",
"222222222000000000000000000000000000000",
"222222222000000000000000000000000000000",
"222222222000000000000000000000000000000",
"222222222000000000000000000000000000000",
"222222222000000000000000000000000000000",
"222222222000000000000000000000000000000",
"222222222000000000000000000000000000000",
"222222222000000000000000000000000000000",
"222222222000000000000000000000000000000",
"222222222000000000000000000000000000000",
"222222222000000000000000000000000000000",
"222222222000000000000000000000000000000",
"222222222000000000000000000000000000000",
"222222222000000000000000000000000000000",
"222222222000222222222222222222222221000",
"222222222002222222222222222222222222100",
"222222222022222222222222222222222222220",
"222222222222222222222222222222222222210",
"222222222222222222222222222222222222221",
"222222222222222222222222222222222222222",
"222222222222222222222222222222222222222",
"222222222222222222222222222222122222222",
"222222222222222200000000000000122222222",
"222222222222222000000000000000122222222",
"222222222222220000000000000000122222222",
"222222222222200000000000000000122222222",
"222222222222000000000000000000122222222",
"222222222220000000000000000000122222222",
"222222222200000000000000000000122222222",
"222222222000000000000000000000122222222",
"222222222000000000000000000000122222222",
"222222222000000000000000000000122222222",
"222222222000000000000000000000122222222",
"222222222000000000000000000000122222222",
"222222222000000000000000000000122222222",
"222222222000000000000000000000122222222",
"222222222000000000000000000000122222222",
"222222222000000000000000000001222222222",
"122222222100000000000000000012222222222",
"222222222210000000000000000122222222221",
"012222222222000000000000001222222222210",
"002222222222222222222222212222222222100",
"002222222222222222222222222222222221000",
"000122222222222222222222222222222210000",
"000022222222222222222222222222222100000",
"000022222222222222222222222222221000000",
"000001222222222222222222222222210000000",
"000002222222222222222222222222100000000",
"000000122222222222222222222221000000000",
};
