/* XPM */
static char * xpm_data[] = {
"38 60 3 1",
"0 c #b0b0b1",
"1 c #dedede",
"2 c None",
"00000000000000000000000000000000000000",
"11111111111111111111111111111111111111",
"11111111111111111111111111111111111111",
"11111111111111111111111111111111111111",
"11111111111111111111111111111111111111",
"11111111111111111111111111111111111111",
"11111111111111111111111111111111111111",
"11111111111111111111111111111111111111",
"22222222222222222222222222222211111111",
"22222222222222222222222222222211111111",
"22222222222222222222222222222011111111",
"22222222222222222222222222220111111111",
"22222222222222222222222222201111111111",
"22222222222222222222222222011111111110",
"22222222222222222222222220111111111102",
"22222222222222222222222201111111111022",
"22222222222222222222222011111111110222",
"22222222222222222222220111111111102222",
"22222222222222222222201111111111022222",
"22222222222222222222011111111110222222",
"22222222222222222220111111111102222222",
"22222222222222222201111111111022222222",
"22222222222222222011111111110222222222",
"22222222222222222111111111102222222222",
"22222222222222221111111111022222222222",
"22222222222222211111111110222222222222",
"22222222222222111111111102222222222222",
"22222222222221111111111222222222222222",
"22222222222211111111111222222222222222",
"22222222222111111111112222222222222222",
"22222222221111111111122222222222222222",
"22222222211111111111222222222222222222",
"22222222111111111112222222222222222222",
"22222221111111111122222222222222222222",
"22222211111111111222222222222222222222",
"22222211111111112222222222222222222222",
"22222211111111122222222222222222222222",
"22222211111111122222222222222222222222",
"22222211111111122222222222222222222222",
"22222211111111122222222222222222222222",
"22222211111111122222222222222222222222",
"22222211111111122222222222222222222222",
"22222211111111122222222222222222222222",
"22222211111111122222222222222222222222",
"22222211111111122222222222222222222222",
"22222211111111122222222222222222222222",
"22222211111111122222222222222222222222",
"22222211111111122222222222222222222222",
"22222211111111122222222222222222222222",
"22222211111111122222222222222222222222",
"22222211111111122222222222222222222222",
"22222211111111122222222222222222222222",
"22222211111111122222222222222222222222",
"22222211111111122222222222222222222222",
"22222211111111122222222222222222222222",
"22222211111111122222222222222222222222",
"22222211111111122222222222222222222222",
"22222211111111122222222222222222222222",
"22222211111111122222222222222222222222",
"22222211111111122222222222222222222222",
};
