/* XPM */
static char * xpm_data[] = {
"38 60 3 1",
"0 c None",
"1 c #dededf",
"2 c #a9a9ab",
"00000000000012222222222222222222200000",
"00000000000111111111111111111111120000",
"00000000000111111111111111111111111000",
"00000000001111111111111111111111111000",
"00000000011111111111111111111111111200",
"00000000111111111111111111111111111110",
"00000002111111111111111111111111111110",
"00000021111111111111111111111111111112",
"00000211111111111000000000002111111111",
"00002111111111110000000000000111111111",
"00021111111111100000000000000111111111",
"00211111111111000000000000000021111111",
"02111111111110000000000000000021111111",
"21111111111100000000000000000021111111",
"11111111111000000000000000000021111111",
"11111111110000000000000000000021111111",
"11111111200000000000000000000021111111",
"11111111200000000000000000000021111111",
"11111111200000000000000000000021111111",
"11111111200000000000000000000011111111",
"11111111100000000000000000000211111111",
"11111111120000000000000000002111111111",
"21111111111000000000000000021111111111",
"02111111111000000000000000111111111111",
"00111111111211111111111111111111111110",
"00111111111111111111111111111111111100",
"00021111111111111111111111111111112000",
"00001111111111111111111111111111120000",
"00001111111111111111111111111111200000",
"00000211111111111111111111111111000000",
"00000011111111111111111111111111200000",
"00000011111111111111111111111111110000",
"00000021111111111100000021111111110000",
"00000211111111111000000011111111112000",
"00002111111111110000000002111111111100",
"00021111111111100000000000211111111100",
"00211111111111000000000000011111111120",
"02111111111110000000000000011111111111",
"21111111111100000000000000002111111111",
"11111111112000000000000000000111111111",
"11111111120000000000000000000111111111",
"11111111200000000000000000000021111111",
"11111111200000000000000000000021111111",
"11111111200000000000000000000021111111",
"11111111200000000000000000000021111111",
"11111111200000000000000000000021111111",
"11111111200000000000000000000021111111",
"11111111200000000000000000000011111111",
"11111111100000000000000000000211111111",
"11111111120000000000000000002111111111",
"11111111111000000000000000021111111111",
"02111111111000000000000000211111111111",
"00111111111211111111111111111111111110",
"00111111111111111111111111111111111200",
"00021111111111111111111111111111112000",
"00001111111111111111111111111111120000",
"00001111111111111111111111111111200000",
"00000211111111111111111111111112000000",
"00000011111111111111111111111120000000",
"00000011111111111111111111111200000000",
};
