/* XPM */
static char * xpm_data[] = {
"37 60 3 1",
"0 c None",
"1 c #dfdfdf",
"2 c #a7a8a9",
"0001222222222222222222222222200000000",
"0011111111111111111111111111120000000",
"0111111111111111111111111111111000000",
"1111111111111111111111111111111000000",
"1111111111111111111111111111111200000",
"1111111111111111111111111111111110000",
"1111111111111111111111111111111110000",
"1111111111111111111111111111111112000",
"1111111100000000000000002111111111100",
"1111111100000000000000000211111111100",
"1111111100000000000000000111111111120",
"1111111100000000000000000021111111111",
"1111111100000000000000000002111111111",
"1111111100000000000000000001111111111",
"1111111100000000000000000000211111111",
"1111111100000000000000000000021111111",
"1111111100000000000000000000021111111",
"1111111100000000000000000000021111111",
"1111111120000000000000000000021111111",
"1111111111000000000000000000021111111",
"2111111111000000000000000000021111111",
"0111111111200000000000000000021111111",
"0111111111110000000000000000021111111",
"0021111111110000000000000000021111111",
"0001111111112000000000000000021111111",
"0001111111111111111111111111111111111",
"0000211111111111111111111111111111111",
"0000011111111111111111111111111111111",
"0000011111111111111111111111111111111",
"0000002111111111111111111111111111111",
"0000000111111111111111111111111111111",
"0000000111111111111111111111111111111",
"0000000011111111111111111111121111111",
"0000000000000000000000000000021111111",
"0000000000000000000000000000021111111",
"0000000000000000000000000000021111111",
"0000000000000000000000000000021111111",
"0000000000000000000000000000021111111",
"0000000000000000000000000000021111111",
"0000000000000000000000000000021111111",
"0000000000000000000000000000021111111",
"0000000000000000000000000000021111111",
"0000000000000000000000000000021111111",
"0000000000000000000000000000021111111",
"0000000000000000000000000000021111111",
"0000000000000000000000000000011111111",
"0000000000000000000000000000211111111",
"0000000000000000000000000002111111111",
"0000000000000000000000000021111111111",
"0000000000000000000000000211111111111",
"0000000000000000000000001111111111120",
"0000000000000000000000011111111111200",
"0011111111111111111111111111111112000",
"0021111111111111111111111111111120000",
"0021111111111111111111111111111100000",
"0021111111111111111111111111111000000",
"0021111111111111111111111111111000000",
"0021111111111111111111111111110000000",
"0021111111111111111111111111100000000",
"0021111111111111111111111112000000000",
};
