/* XPM */
static char * xpm_data[] = {
"37 59 3 1",
"0 c None",
"1 c #dedede",
"2 c #a6a6a8",
"0000000000001111111111111111111111111",
"0000000000011111111111111111111111111",
"0000000000111111111111111111111111111",
"0000000001111111111111111111111111111",
"0000000001111111111111111111111111111",
"0000000011111111111111111111111111111",
"0000000111111111111111111111111111111",
"0000001111111111122222222222111111111",
"0000011111111111000000000000211111111",
"0000111111111110000000000000211111111",
"0002111111111100000000000000211111111",
"0021111111111000000000000000211111111",
"0211111111111000000000000000211111111",
"2111111111110000000000000000211111111",
"1111111111100000000000000000211111111",
"1111111111000000000000000000211111111",
"1111111110000000000000000000211111111",
"1111111100000000000000000000211111111",
"1111111100000000000000000000211111111",
"1111111100000000000000000000211111111",
"1111111100000000000000000000211111111",
"1111111100000000000000000000211111111",
"1111111100000000000000000000211111111",
"1111111100000000000000000000211111111",
"1111111100000000000000000000211111111",
"1111111111111111111111111111111111111",
"1111111111111111111111111111111111111",
"1111111111111111111111111111111111111",
"1111111111111111111111111111111111111",
"1111111111111111111111111111111111111",
"1111111111111111111111111111111111111",
"1111111111111111111111111111111111111",
"1111111111111111111111111111111111111",
"1111111100000000000000000000211111111",
"1111111100000000000000000000211111111",
"1111111100000000000000000000211111111",
"1111111100000000000000000000211111111",
"1111111100000000000000000000211111111",
"1111111100000000000000000000211111111",
"1111111100000000000000000000211111111",
"1111111100000000000000000000211111111",
"1111111100000000000000000000211111111",
"1111111100000000000000000000211111111",
"1111111100000000000000000000211111111",
"1111111100000000000000000000211111111",
"1111111100000000000000000000211111111",
"1111111100000000000000000000211111111",
"1111111100000000000000000000211111111",
"1111111100000000000000000000211111111",
"1111111100000000000000000000211111111",
"1111111100000000000000000000211111111",
"1111111100000000000000000000211111111",
"1111111100000000000000000000211111111",
"1111111100000000000000000000211111111",
"1111111100000000000000000000211111111",
"1111111100000000000000000000211111111",
"1111111100000000000000000000211111111",
"1111111100000000000000000000211111111",
"1111111100000000000000000000211111111",
};
