/* XPM */
static char * xpm_data[] = {
"38 59 3 1",
"0 c #dedede",
"1 c #727476",
"2 c None",
"00000000000000000000000000000000001222",
"00000000000000000000000000000000000222",
"00000000000000000000000000000000000022",
"00000000000000000000000000000000000012",
"00000000000000000000000000000000000002",
"00000000000000000000000000000000000000",
"00000000000000000000000000000000000000",
"00000000000000000000000000000000000000",
"00000000122222222222222222222000000000",
"00000000122222222222222222222000000000",
"00000000122222222222222222222000000000",
"00000000122222222222222222222000000000",
"00000000122222222222222222222000000000",
"00000000122222222222222222220000000000",
"00000000122222222222222222200000000000",
"00000000122222222222222222000000000001",
"00000000122222222222222220000000000012",
"00000000122222222222222200000000000122",
"00000000122222222222222000000000001222",
"00000000122222222222220000000000012222",
"00000000122222222222200000000000122222",
"00000000122222222222000000000001222222",
"00000000122222222220000000000012222222",
"00000000122222222200000000000022222222",
"00000000000000000000000000000002222222",
"00000000000000000000000000000000222222",
"00000000000000000000000000000000122222",
"00000000000000000000000000000000022222",
"00000000000000000000000000000000002222",
"00000000000000000000000000000000001222",
"00000000000000000000000000000000000222",
"00000000000000000000000000000000000022",
"00000000122222222222222222000000000012",
"00000000122222222222222222200000000002",
"00000000122222222222222222220000000000",
"00000000122222222222222222221000000000",
"00000000122222222222222222222000000000",
"00000000122222222222222222222200000000",
"00000000122222222222222222222200000000",
"00000000122222222222222222222200000000",
"00000000122222222222222222222200000000",
"00000000122222222222222222222200000000",
"00000000122222222222222222222200000000",
"00000000122222222222222222222200000000",
"00000000122222222222222222222200000000",
"00000000122222222222222222222200000000",
"00000000122222222222222222222200000000",
"00000000122222222222222222222200000000",
"00000000122222222222222222222200000000",
"00000000122222222222222222222200000000",
"00000000122222222222222222222200000000",
"00000000011111111111111111111100000000",
"00000000000000000000000000000000000000",
"00000000000000000000000000000000000000",
"00000000000000000000000000000000000000",
"00000000000000000000000000000000000000",
"00000000000000000000000000000000000012",
"00000000000000000000000000000000001222",
"00000000000000000000000000000000022222",
};
