/* XPM */
static char * xpm_data[] = {
"39 58 3 1",
"0 c None",
"1 c #dededf",
"2 c #6d6e70",
"000000011111111111111111111111111000000",
"000000111111111111111111111111111100000",
"000001111111111111111111111111111112000",
"000211111111111111111111111111111110000",
"002111111111111111111111111111111111000",
"021111111111111111111111111111111111120",
"211111111111000000000000000011111111100",
"211111111100000000000000000021111111110",
"211111111000000000000000000000111111110",
"211111111200000000000000000000011111100",
"211111111200000000000000000000211111000",
"211111111200000000000000000000001110000",
"211111111200000000000000000000001100000",
"211111111200000000000000000000002000000",
"211111111200000000000000000000000000000",
"211111111200000000000000000000000000000",
"211111111200000000000000000000000000000",
"211111111200000000000000000000000000000",
"211111111200000000000000000000000000000",
"211111111200000000000000000000000000000",
"211111111200000000000000000000000000000",
"211111111200000000000000000000000000000",
"211111111200000000000000000000000000000",
"211111111200000000000000000000000000000",
"211111111200000000000000000000000000000",
"211111111200000000000000000000000000000",
"211111111200000000000000000000000000000",
"211111111200000000000000000000000000000",
"211111111200000000000000000000000000000",
"211111111200000000000000000000000000000",
"211111111200000000000000000000000000000",
"211111111200000000000000000000000000000",
"211111111200000000000000000000000000000",
"211111111200000000000000000000000000000",
"211111111200000000000000000000000000000",
"211111111200000000000000000000000000000",
"211111111200000000000000000000000000000",
"211111111200000000000000000000000000000",
"211111111200000000000000000000000000000",
"211111111200000000000000000000000000000",
"211111111200000000000000000000000000000",
"211111111200000000000000000000000000000",
"211111111200000000000000000000000000000",
"211111111200000000000000000000000000000",
"211111111200000000000000000000000000000",
"211111111200000000000000000000000000000",
"211111111000000000000000000000000110000",
"211111111120000000000000000000001111200",
"001111111110000000000000000000011111100",
"001111111110000000000000000000111111100",
"002111111111022222222222222221111111110",
"000011111111111111111111111111111111111",
"000011111111111111111111111111111111112",
"000021111111111111111111111111111111120",
"000000111111111111111111111111111111200",
"000000111111111111111111111111111112000",
"000000211111111111111111111111111120000",
"000000001111111111111111111111111200000",
};
