/* XPM */
static char * xpm_data[] = {
"40 58 3 1",
"0 c #dfdfdf",
"1 c None",
"2 c #aaaaab",
"0000000000000000000000000000001111111111",
"0000000000000000000000000000001111111111",
"0000000000000000000000000000002111111111",
"0000000000000000000000000000000011111111",
"0000000000000000000000000000000011111111",
"0000000000000000000000000000000021111111",
"0000000000222222222222200000000000111111",
"0000000002111111111111112000000000111111",
"0000000002111111111111111000000000211111",
"0000000002111111111111111000000000001111",
"0000000002111111111111111120000000001111",
"0000000002111111111111111110000000002111",
"0000000002111111111111111110000000000011",
"0000000002111111111111111111200000000011",
"0000000002111111111111111111100000000021",
"0000000002111111111111111111100000000000",
"0000000002111111111111111111112000000000",
"0000000002111111111111111111111000000000",
"0000000002111111111111111111111200000000",
"0000000002111111111111111111111200000000",
"0000000002111111111111111111111200000000",
"0000000002111111111111111111111200000000",
"0000000002111111111111111111111200000000",
"0000000002111111111111111111111200000000",
"0000000002111111111111111111111200000000",
"0000000002111111111111111111111200000000",
"0000000002111111111111111111111200000000",
"0000000002111111111111111111111200000000",
"0000000002111111111111111111111200000000",
"0000000002111111111111111111111200000000",
"0000000002111111111111111111111200000000",
"0000000002111111111111111111111200000000",
"0000000002111111111111111111111200000000",
"0000000002111111111111111111111200000000",
"0000000002111111111111111111111200000000",
"0000000002111111111111111111111200000000",
"0000000002111111111111111111111200000000",
"0000000002111111111111111111111200000000",
"0000000002111111111111111111111200000000",
"0000000002111111111111111111111200000000",
"0000000002111111111111111111111200000000",
"0000000002111111111111111111111200000000",
"0000000002111111111111111111111200000000",
"0000000002111111111111111111111200000000",
"0000000002111111111111111111111200000000",
"0000000002111111111111111111111200000000",
"0000000002111111111111111111111200000000",
"0000000002111111111111111111111200000000",
"0000000002111111111111111111111000000000",
"0000000002111111111111111111110000000000",
"0000000002000000000000000000000000000000",
"0000000000000000000000000000000000000000",
"0000000000000000000000000000000000000001",
"0000000000000000000000000000000000000011",
"0000000000000000000000000000000000002111",
"0000000000000000000000000000000000021111",
"0000000000000000000000000000000000211111",
"0000000000000000000000000000000002111111",
};
