/* XPM */
static char * xpm_data[] = {
"39 59 3 1",
"0 c None",
"1 c #aeaeaf",
"2 c #dedede",
"000000122222222222222222222222222222222",
"000000222222222222222222222222222222222",
"000002222222222222222222222222222222222",
"000022222222222222222222222222222222222",
"000222222222222222222222222222222222222",
"002222222222222222222222222222222222222",
"022222222222222222222222222222222222222",
"222222222221111111111111111111111111111",
"222222222100000000000000000000000000000",
"222222220000000000000000000000000000000",
"222222221000000000000000000000000000000",
"222222221000000000000000000000000000000",
"222222221000000000000000000000000000000",
"222222221000000000000000000000000000000",
"222222221000000000000000000000000000000",
"222222221000000000000000000000000000000",
"222222221000000000000000000000000000000",
"222222221000000000000000000000000000000",
"222222221000000000000000000000000000000",
"222222221000000000000000000000000000000",
"222222221000000000000000000000000000000",
"222222221000000000000000000000000000000",
"222222221000000000000000000000000000000",
"222222221000000000000000000000000000000",
"222222222111111111111111111100000000000",
"222222222222222222222222222200000000000",
"222222222222222222222222222200000000000",
"222222222222222222222222222200000000000",
"222222222222222222222222222200000000000",
"222222222222222222222222222200000000000",
"222222222222222222222222222200000000000",
"222222222222222222222222222200000000000",
"222222221000000000000000000000000000000",
"222222221000000000000000000000000000000",
"222222221000000000000000000000000000000",
"222222221000000000000000000000000000000",
"222222221000000000000000000000000000000",
"222222221000000000000000000000000000000",
"222222221000000000000000000000000000000",
"222222221000000000000000000000000000000",
"222222221000000000000000000000000000000",
"222222221000000000000000000000000000000",
"222222221000000000000000000000000000000",
"222222221000000000000000000000000000000",
"222222221000000000000000000000000000000",
"222222221000000000000000000000000000000",
"222222221000000000000000000000000000000",
"222222221000000000000000000000000000000",
"222222222000000000000000000000000000000",
"122222222200000000000000000000000000000",
"022222222210000000000000000000000000000",
"002222222221000000000000000000000000000",
"001222222222222222222222222222222222222",
"000222222222222222222222222222222222222",
"000022222222222222222222222222222222222",
"000012222222222222222222222222222222222",
"000002222222222222222222222222222222222",
"000000222222222222222222222222222222222",
"000000122222222222222222222222222222222",
};
