/* XPM */
static char * xpm_data[] = {
"37 59 3 1",
"0 c None",
"1 c #b6b7b8",
"2 c #dedede",
"0000000012222222222222222222222222222",
"0000000122222222222222222222222222222",
"0000001222222222222222222222222222222",
"0000012222222222222222222222222222222",
"0000122222222222222222222222222222222",
"0001222222222222222222222222222222222",
"0012222222222222222222222222222222222",
"0122222222222111111111111111111111111",
"1222222222210000000000000000000000000",
"2222222222100000000000000000000000000",
"2222222221000000000000000000000000000",
"2222222210000000000000000000000000000",
"2222222210000000000000000000000000000",
"2222222210000000000000000000000000000",
"2222222210000000000000000000000000000",
"2222222210000000000000000000000000000",
"2222222210000000000000000000000000000",
"2222222210000000000000000000000000000",
"2222222210000000000000000000000000000",
"2222222210000000000000000000000000000",
"2222222210000000000000000000000000000",
"2222222210000000000000000000000000000",
"2222222210000000000000000000000000000",
"2222222210000000000000000000000000000",
"2222222221111111111111111110000000000",
"2222222222222222222222222221000000000",
"2222222222222222222222222221000000000",
"2222222222222222222222222221000000000",
"2222222222222222222222222221000000000",
"2222222222222222222222222221000000000",
"2222222222222222222222222221000000000",
"2222222222222222222222222221000000000",
"2222222210000000000000000000000000000",
"2222222210000000000000000000000000000",
"2222222210000000000000000000000000000",
"2222222210000000000000000000000000000",
"2222222210000000000000000000000000000",
"2222222210000000000000000000000000000",
"2222222210000000000000000000000000000",
"2222222210000000000000000000000000000",
"2222222210000000000000000000000000000",
"2222222210000000000000000000000000000",
"2222222210000000000000000000000000000",
"2222222210000000000000000000000000000",
"2222222210000000000000000000000000000",
"2222222210000000000000000000000000000",
"2222222210000000000000000000000000000",
"2222222210000000000000000000000000000",
"2222222210000000000000000000000000000",
"2222222210000000000000000000000000000",
"2222222210000000000000000000000000000",
"2222222210000000000000000000000000000",
"2222222210000000000000000000000000000",
"2222222210000000000000000000000000000",
"2222222210000000000000000000000000000",
"2222222210000000000000000000000000000",
"2222222210000000000000000000000000000",
"2222222210000000000000000000000000000",
"2222222210000000000000000000000000000",
};
