/* XPM */
static char * xpm_data[] = {
"40 58 3 1",
"0 c None",
"1 c #dedfdf",
"2 c #707274",
"0000001111111111111111111111111111000000",
"0000011111111111111111111111111111200000",
"0000111111111111111111111111111111100000",
"0001111111111111111111111111111111110000",
"0011111111111111111111111111111111112000",
"0211111111111111111111111111111111111000",
"2111111111111111111111111111111111111100",
"2111111111100000000000000000211111111120",
"2111111111000000000000000000011111111120",
"2111111112000000000000000000001111111100",
"2111111112000000000000000000002111111000",
"2111111112000000000000000000000111110000",
"2111111112000000000000000000000011100000",
"2111111112000000000000000000000022000000",
"2111111112000000000000000000000000000000",
"2111111112000000000000000000000000000000",
"2111111112000000000000000000000000000000",
"2111111112000000000000000000000000000000",
"2111111112000000000000000000000000000000",
"2111111112000000000000000000000000000000",
"2111111112000000000000000000000000000000",
"2111111112000000000000000000000000000000",
"2111111112000000000000000000000000000000",
"2111111112000000000111111111111111112000",
"2111111112000000000111111111111111111000",
"2111111112000000000111111111111111111100",
"2111111112000000000111111111111111111120",
"2111111112000000000111111111111111111110",
"2111111112000000000111111111111111111111",
"2111111112000000000111111111111111111111",
"2111111112000000000222222222222111111111",
"2111111112000000000000000000000111111111",
"2111111112000000000000000000000111111111",
"2111111112000000000000000000000111111111",
"2111111112000000000000000000000111111111",
"2111111112000000000000000000000111111111",
"2111111112000000000000000000000111111111",
"2111111112000000000000000000000111111111",
"2111111112000000000000000000000111111111",
"2111111112000000000000000000000111111111",
"2111111112000000000000000000000111111111",
"2111111112000000000000000000000111111111",
"2111111112000000000000000000000111111111",
"2111111112000000000000000000000111111111",
"2111111112000000000000000000000111111111",
"2111111112000000000000000000000111111111",
"2111111112000000000000000000000111111111",
"2111111111000000000000000000000111111111",
"0111111111100000000000000000000111111111",
"0211111111120000000000000000000111111111",
"0011111111112222222222222222222111111111",
"0001111111111111111111111111111111111111",
"0002111111111111111111111111111111111111",
"0000111111111111111111111111111111111111",
"0000011111111111111111111111111111111111",
"0000021111111111111111111111111111111111",
"0000001111111111111111111111111111111111",
"0000000111111111111111111111111111111111",
};
