/* XPM */
static char * xpm_data[] = {
"38 58 3 1",
"0 c #dedede",
"1 c None",
"2 c #707274",
"00000000111111111111111111111100000000",
"00000000111111111111111111111100000000",
"00000000111111111111111111111100000000",
"00000000111111111111111111111100000000",
"00000000111111111111111111111100000000",
"00000000111111111111111111111100000000",
"00000000111111111111111111111100000000",
"00000000111111111111111111111100000000",
"00000000111111111111111111111100000000",
"00000000111111111111111111111100000000",
"00000000111111111111111111111100000000",
"00000000111111111111111111111100000000",
"00000000111111111111111111111100000000",
"00000000111111111111111111111100000000",
"00000000111111111111111111111100000000",
"00000000111111111111111111111100000000",
"00000000111111111111111111111100000000",
"00000000111111111111111111111100000000",
"00000000111111111111111111111100000000",
"00000000111111111111111111111100000000",
"00000000111111111111111111111100000000",
"00000000111111111111111111111100000000",
"00000000111111111111111111111100000000",
"00000000111110000000000001111100000000",
"00000000111000000000000000011100000000",
"00000000200000000000000000000200000000",
"00000000000000000000000000000000000000",
"00000000000000000000000000000000000000",
"00000000000000000000000000000000000000",
"00000000000000000000000000000000000000",
"00000000001222222222222222200000000000",
"00000000021111111111111111120000000000",
"00000000211111111111111111111000000000",
"00000000111111111111111111111100000000",
"00000000111111111111111111111200000000",
"00000000111111111111111111111100000000",
"00000000111111111111111111111100000000",
"00000000111111111111111111111100000000",
"00000000111111111111111111111100000000",
"00000000111111111111111111111100000000",
"00000000111111111111111111111100000000",
"00000000111111111111111111111100000000",
"00000000111111111111111111111100000000",
"00000000111111111111111111111100000000",
"00000000111111111111111111111100000000",
"00000000111111111111111111111100000000",
"00000000111111111111111111111100000000",
"00000000111111111111111111111100000000",
"00000000111111111111111111111100000000",
"00000000111111111111111111111100000000",
"00000000111111111111111111111100000000",
"00000000111111111111111111111100000000",
"00000000111111111111111111111100000000",
"00000000111111111111111111111100000000",
"00000000111111111111111111111100000000",
"00000000111111111111111111111100000000",
"00000000111111111111111111111100000000",
"00000000111111111111111111111100000000",
};
