/* XPM */
static char * xpm_data[] = {
"37 58 3 1",
"0 c #dedede",
"1 c #b9b9ba",
"2 c None",
"0000000000000000000000000000000000000",
"0000000000000000000000000000000000000",
"0000000000000000000000000000000000000",
"0000000000000000000000000000000000000",
"0000000000000000000000000000000000000",
"0000000000000000000000000000000000000",
"0000000000000000000000000000000000000",
"1111111111111100000000011111111111111",
"2222222222222210000000022222222222222",
"2222222222222210000000022222222222222",
"2222222222222210000000022222222222222",
"2222222222222210000000022222222222222",
"2222222222222210000000022222222222222",
"2222222222222210000000022222222222222",
"2222222222222210000000022222222222222",
"2222222222222210000000022222222222222",
"2222222222222210000000022222222222222",
"2222222222222210000000022222222222222",
"2222222222222210000000022222222222222",
"2222222222222210000000022222222222222",
"2222222222222210000000022222222222222",
"2222222222222210000000022222222222222",
"2222222222222210000000022222222222222",
"2222222222222210000000022222222222222",
"2222222222222210000000022222222222222",
"2222222222222210000000022222222222222",
"2222222222222210000000022222222222222",
"2222222222222210000000022222222222222",
"2222222222222210000000022222222222222",
"2222222222222210000000022222222222222",
"2222222222222210000000022222222222222",
"2222222222222210000000022222222222222",
"2222222222222210000000022222222222222",
"2222222222222210000000022222222222222",
"2222222222222210000000022222222222222",
"2222222222222210000000022222222222222",
"2222222222222210000000022222222222222",
"2222222222222210000000022222222222222",
"2222222222222210000000022222222222222",
"2222222222222210000000022222222222222",
"2222222222222210000000022222222222222",
"2222222222222210000000022222222222222",
"2222222222222210000000022222222222222",
"2222222222222210000000022222222222222",
"2222222222222210000000022222222222222",
"2222222222222210000000022222222222222",
"2222222222222210000000022222222222222",
"2222222222222210000000022222222222222",
"2222222222222210000000022222222222222",
"2222222222222210000000022222222222222",
"2222222222222210000000022222222222222",
"2222222222222200000000022222222222222",
"0000000000000000000000000000000000000",
"0000000000000000000000000000000000000",
"0000000000000000000000000000000000000",
"0000000000000000000000000000000000000",
"0000000000000000000000000000000000000",
"0000000000000000000000000000000000000",
};
