/* XPM */
static char * xpm_data[] = {
"32 64 3 1",
"0 c #dedede",
"1 c None",
"2 c #797b7d",
"00000000000000000000000000000000",
"00000000000000000000000000000000",
"00000000000000000000000000000000",
"00000000000000000000000000000000",
"00000000000000000000000000000000",
"00000000000000000000000000000000",
"00000000000000000000000000000000",
"11111111111111111111111000000000",
"11111111111111111111111200000000",
"11111111111111111111111200000000",
"11111111111111111111111200000000",
"11111111111111111111111200000000",
"11111111111111111111111200000000",
"11111111111111111111111200000000",
"11111111111111111111111200000000",
"11111111111111111111111200000000",
"11111111111111111111111200000000",
"11111111111111111111111200000000",
"11111111111111111111111200000000",
"11111111111111111111111200000000",
"11111111111111111111111200000000",
"11111111111111111111111200000000",
"11111111111111111111111200000000",
"11111111111111111111111200000000",
"11111111111111111111111200000000",
"11111111111111111111111200000000",
"11111111111111111111111200000000",
"11111111111111111111111200000000",
"11111111111111111111111200000000",
"11111111111111111111111200000000",
"11111111111111111111111200000000",
"11111111111111111111111200000000",
"11111111111111111111111200000000",
"11111111111111111111111200000000",
"11111111111111111111111200000000",
"11111111111111111111111200000000",
"11111111111111111111111200000000",
"11111111111111111111111200000000",
"11111111111111111111111200000000",
"11111111111111111111111200000000",
"11111111111111111111111200000000",
"11111111111111111111111200000000",
"11111111111111111111111200000000",
"11111111111111111111111200000000",
"11111111111111111111111200000000",
"11111111111111111111111200000000",
"11111111111111111111111200000000",
"11111111111111111111111200000000",
"11111111111111111111111100000000",
"11111111111111111111111000000000",
"11111111111111111111110000000000",
"11111111111111111111100000000002",
"11111111111111111111000000000021",
"11111111111111111110000000000211",
"11111111111111111100000000001111",
"11111111111111112000000000011111",
"11111111111111120000000000111111",
"11111111111111200000000001111111",
"11111100000000000000000011111111",
"11111100000000000000000111111111",
"11111100000000000000001111111111",
"11111100000000000000011111111111",
"11111100000000000000111111111111",
"11111100000000000001111111111111",
};
