/* XPM */
static char * xpm_data[] = {
"46 59 3 1",
"0 c #dfdfdf",
"1 c #a9a9ab",
"2 c None",
"0000000122222222222222222222222220000000000022",
"0000000122222222222222222222222200000000000222",
"0000000122222222222222222222222000000000002222",
"0000000122222222222222222222220000000000022222",
"0000000122222222222222222222200000000000222222",
"0000000122222222222222222222000000000002222222",
"0000000122222222222222222220000000000022222222",
"0000000122222222222222222200000000000222222222",
"0000000122222222222222222000000000002222222222",
"0000000122222222222222220000000000022222222222",
"0000000122222222222222200000000000222222222222",
"0000000122222222222222000000000002222222222222",
"0000000122222222222222000000000022222222222222",
"0000000122222222222210000000000222222222222222",
"0000000122222222222100000000002222222222222222",
"0000000122222222221000000000012222222222222222",
"0000000122222222210000000000122222222222222222",
"0000000122222222100000000001222222222222222222",
"0000000122222221000000000012222222222222222222",
"0000000122222210000000000122222222222222222222",
"0000000122222100000000001222222222222222222222",
"0000000122221000000000012222222222222222222222",
"0000000122210000000000122222222222222222222222",
"0000000122100000000001222222222222222222222222",
"0000000121000000000000222222222222222222222222",
"0000000110000000000000122222222222222222222222",
"0000000000000000000000022222222222222222222222",
"0000000000000000000000002222222222222222222222",
"0000000000000000000000001222222222222222222222",
"0000000000000001000000000222222222222222222222",
"0000000000000012100000000022222222222222222222",
"0000000000000122200000000012222222222222222222",
"0000000000001222220000000001222222222222222222",
"0000000000012222221000000000222222222222222222",
"0000000000122222222000000000122222222222222222",
"0000000001222222222200000000012222222222222222",
"0000000022222222222210000000002222222222222222",
"0000000022222222222222000000002222222222222222",
"0000000122222222222222000000000122222222222222",
"0000000122222222222222100000000022222222222222",
"0000000122222222222222210000000002222222222222",
"0000000122222222222222220000000001222222222222",
"0000000122222222222222222000000000222222222222",
"0000000122222222222222222100000000022222222222",
"0000000122222222222222222200000000012222222222",
"0000000122222222222222222220000000002222222222",
"0000000122222222222222222221000000000222222222",
"0000000122222222222222222222000000000122222222",
"0000000122222222222222222222200000000022222222",
"0000000122222222222222222222210000000002222222",
"0000000122222222222222222222220000000001222222",
"0000000122222222222222222222222000000000222222",
"0000000122222222222222222222222100000000022222",
"0000000122222222222222222222222220000000012222",
"0000000122222222222222222222222220000000002222",
"0000000122222222222222222222222221000000000222",
"0000000122222222222222222222222222100000000122",
"0000000122222222222222222222222222200000000012",
"0000000122222222222222222222222222210000000002",
};
