/* XPM */
static char * xpm_data[] = {
"39 58 3 1",
"0 c #dedede",
"1 c #b3b4b5",
"2 c None",
"000000001222222222222222222222222222222",
"000000001222222222222222222222222222222",
"000000001222222222222222222222222222222",
"000000001222222222222222222222222222222",
"000000001222222222222222222222222222222",
"000000001222222222222222222222222222222",
"000000001222222222222222222222222222222",
"000000001222222222222222222222222222222",
"000000001222222222222222222222222222222",
"000000001222222222222222222222222222222",
"000000001222222222222222222222222222222",
"000000001222222222222222222222222222222",
"000000001222222222222222222222222222222",
"000000001222222222222222222222222222222",
"000000001222222222222222222222222222222",
"000000001222222222222222222222222222222",
"000000001222222222222222222222222222222",
"000000001222222222222222222222222222222",
"000000001222222222222222222222222222222",
"000000001222222222222222222222222222222",
"000000001222222222222222222222222222222",
"000000001222222222222222222222222222222",
"000000001222222222222222222222222222222",
"000000001222222222222222222222222222222",
"000000001222222222222222222222222222222",
"000000001222222222222222222222222222222",
"000000001222222222222222222222222222222",
"000000001222222222222222222222222222222",
"000000001222222222222222222222222222222",
"000000001222222222222222222222222222222",
"000000001222222222222222222222222222222",
"000000001222222222222222222222222222222",
"000000001222222222222222222222222222222",
"000000001222222222222222222222222222222",
"000000001222222222222222222222222222222",
"000000001222222222222222222222222222222",
"000000001222222222222222222222222222222",
"000000001222222222222222222222222222222",
"000000001222222222222222222222222222222",
"000000001222222222222222222222222222222",
"000000001222222222222222222222222222222",
"000000001222222222222222222222222222222",
"000000001222222222222222222222222222222",
"000000001222222222222222222222222222222",
"000000001222222222222222222222222222222",
"000000001222222222222222222222211111111",
"000000001222222222222222222222200000000",
"000000000222222222222222222222200000000",
"100000000122222222222222222222200000000",
"200000000012222222222222222222200000000",
"210000000002222222222222222222200000000",
"221000000000222222222222222222100000000",
"222000000000000000000000000000000000000",
"222100000000000000000000000000000000000",
"222210000000000000000000000000000000000",
"222220000000000000000000000000000000000",
"222221000000000000000000000000000000000",
"222222100000000000000000000000000000000",
};
