/* XPM */
static char * xpm_data[] = {
"39 59 3 1",
"0 c #dedede",
"1 c None",
"2 c #afb0b1",
"000000000111111111111111111112000000002",
"000000000111111111111111111100000000002",
"000000002111111111111111111000000000002",
"000000000011111111111111110000000000002",
"000000000011111111111111100000000000002",
"000000000021111111111111000000000000002",
"000000000000111111111111000000000000002",
"000000000000111111111110000000000000002",
"000000000000211111111120000000000000002",
"000000000000001111111200000000000000002",
"000000000000001111112000000000000000002",
"000000000000002111120000000000000000002",
"000000000000000011200000000000000000002",
"000000000000000010000000000001000000002",
"000000000000000020000000000011000000002",
"000000000000000000000000000111000000002",
"000000000000000000000000021111000000002",
"000000000200000000000000211111000000002",
"000000000100000000000002111111000000002",
"000000000100000000000001111111000000002",
"000000000112000000000001111111000000002",
"000000000111000000000001111111000000002",
"000000000111000000000001111111000000002",
"000000000111120000000001111111000000002",
"000000000111110000000001111111000000002",
"000000000111110000000001111111000000002",
"000000000111111111111111111111000000002",
"000000000111111111111111111111000000002",
"000000000111111111111111111111000000002",
"000000000111111111111111111111000000002",
"000000000111111111111111111111000000002",
"000000000111111111111111111111000000002",
"000000000111111111111111111111000000002",
"000000000111111111111111111111000000002",
"000000000111111111111111111111000000002",
"000000000111111111111111111111000000002",
"000000000111111111111111111111000000002",
"000000000111111111111111111111000000002",
"000000000111111111111111111111000000002",
"000000000111111111111111111111000000002",
"000000000111111111111111111111000000002",
"000000000111111111111111111111000000002",
"000000000111111111111111111111000000002",
"000000000111111111111111111111000000002",
"000000000111111111111111111111000000002",
"000000000111111111111111111111000000002",
"000000000111111111111111111111000000002",
"000000000111111111111111111111000000002",
"000000000111111111111111111111000000002",
"000000000111111111111111111111000000002",
"000000000111111111111111111111000000002",
"000000000111111111111111111111000000002",
"000000000111111111111111111111000000002",
"000000000111111111111111111111000000002",
"000000000111111111111111111111000000002",
"000000000111111111111111111111000000002",
"000000000111111111111111111111000000002",
"000000000111111111111111111111000000002",
"000000000111111111111111111111000000002",
};
