/* XPM */
static char * xpm_data[] = {
"39 58 3 1",
"0 c #dfdfdf",
"1 c None",
"2 c #aaaaac",
"000000000000000111111111111112000000000",
"000000000000000211111111111112000000000",
"000000000000000001111111111112000000000",
"000000000000000021111111111112000000000",
"000000000000000002111111111112000000000",
"000000000000000000011111111112000000000",
"000000000000000000211111111112000000000",
"000000021000000000021111111112000000000",
"000000021120000000000111111112000000000",
"000000021110000000002111111112000000000",
"000000021110000000000211111112000000000",
"000000021111200000000001111112000000000",
"000000021111100000000021111112000000000",
"000000021111100000000002111112000000000",
"000000021111112000000000011112000000000",
"000000021111111000000000211112000000000",
"000000021111111000000000001112000000000",
"000000021111111120000000001112000000000",
"000000021111111110000000002112000000000",
"000000021111111110000000000012000000000",
"000000021111111111200000000012000000000",
"000000021111111111100000000022000000000",
"000000021111111111100000000002000000000",
"000000021111111111112000000000000000000",
"000000021111111111111000000000000000000",
"000000021111111111111000000000000000000",
"000000021111111111111120000000000000000",
"000000021111111111111110000000000000000",
"000000021111111111111110000000000000000",
"000000021111111111111111200000000000000",
"000000021111111111111111100000000000000",
"000000021111111111111111100000000000000",
"000000021111111111111111112000000000000",
"000000021111111111111111111000000000000",
"000000021111111111111111111000000000000",
"000000021111111111111111111120000000000",
"000000021111111111111111111110000000000",
"000000021111111111111111111112000000000",
"000000021111111111111111111112000000000",
"000000021111111111111111111112000000000",
"000000021111111111111111111112000000000",
"000000021111111111111111111112000000000",
"000000021111111111111111111112000000000",
"000000021111111111111111111112000000000",
"000000021111111111111111111112000000000",
"000000021111111111111111111112000000000",
"000000021111111111111111111112000000000",
"000000021111111111111111111112000000000",
"000000021111111111111111111112000000000",
"000000021111111111111111111112000000000",
"000000021111111111111111111112000000000",
"000000021111111111111111111112000000000",
"000000021111111111111111111112000000000",
"000000021111111111111111111112000000000",
"000000021111111111111111111112000000000",
"000000021111111111111111111112000000000",
"000000021111111111111111111112000000000",
"000000021111111111111111111112000000000",
};
