/* XPM */
static char * xpm_data[] = {
"39 58 3 1",
"0 c None",
"1 c #6c6e70",
"2 c #dfdfdf",
"000012222222222222222222222222221000000",
"000122222222222222222222222222222000000",
"001222222222222222222222222222222200000",
"002222222222222222222222222222222210000",
"022222222222222222222222222222222220000",
"222222222222222222222222222222222222000",
"222222222222222222222222222222222222100",
"222222222100000000000000000222222222200",
"222222221000000000000000000022222222220",
"222222220000000000000000000022222222221",
"222222220000000000000000000002222222221",
"222222220000000000000000000001222222221",
"222222220000000000000000000001222222221",
"222222220000000000000000000001222222221",
"222222220000000000000000000001222222221",
"222222220000000000000000000001222222221",
"222222220000000000000000000001222222221",
"222222220000000000000000000001222222221",
"222222220000000000000000000001222222221",
"222222220000000000000000000001222222221",
"222222220000000000000000000001222222221",
"222222220000000000000000000001222222221",
"222222220000000000000000000001222222221",
"222222220000000000000000000001222222221",
"222222220000000000000000000001222222221",
"222222220000000000000000000001222222221",
"222222220000000000000000000001222222221",
"222222220000000000000000000001222222221",
"222222220000000000000000000001222222221",
"222222220000000000000000000001222222221",
"222222220000000000000000000001222222221",
"222222220000000000000000000001222222221",
"222222220000000000000000000001222222221",
"222222220000000000000000000001222222221",
"222222220000000000000000000001222222221",
"222222220000000000000000000001222222221",
"222222220000000000000000000001222222221",
"222222220000000000000000000001222222221",
"222222220000000000000000000001222222221",
"222222220000000000000000000001222222221",
"222222220000000000000000000001222222221",
"222222220000000000000000000001222222221",
"222222220000000000000000000001222222221",
"222222220000000000000000000001222222221",
"222222220000000000000000000001222222221",
"222222220000000000000000000001222222221",
"222222220000000000000000000001222222221",
"222222222000000000000000000001222222221",
"222222222100000000000000000002222222221",
"222222222200000000000000000022222222221",
"022222222221111111111111111222222222221",
"012222222222222222222222222222222222220",
"002222222222222222222222222222222222200",
"000222222222222222222222222222222222000",
"000122222222222222222222222222222220000",
"000022222222222222222222222222222200000",
"000002222222222222222222222222222000000",
"000001222222222222222222222222220000000",
};
