/* XPM */
static char * xpm_data[] = {
"40 59 3 1",
"0 c #76787a",
"1 c #dedfdf",
"2 c None",
"0111111111111111111111111111111112222222",
"0111111111111111111111111111111112222222",
"0111111111111111111111111111111111022222",
"0111111111111111111111111111111111122222",
"0111111111111111111111111111111111122222",
"0111111111111111111111111111111111110222",
"0111111111111111111111111111111111111222",
"0111111111222222222222222222111111111222",
"0111111110222222222222222222011111111102",
"0111111110222222222222222222221111111112",
"0111111110222222222222222222221111111112",
"0111111110222222222222222222220111111112",
"0111111110222222222222222222222111111112",
"0111111110222222222222222222222111111112",
"0111111110222222222222222222222111111112",
"0111111110222222222222222222222111111112",
"0111111110222222222222222222222111111112",
"0111111110222222222222222222222111111112",
"0111111110222222222222222222222111111112",
"0111111110222222222222222222222111111112",
"0111111110222222222222222222222111111112",
"0111111110222222222222222222222111111112",
"0111111110222222222222222222220111111112",
"0111111110222222222222222222201111111112",
"0111111110222200000000000000211111111112",
"0111111110222211111111111111111111111110",
"0111111110221111111111111111111111111102",
"0111111112111111111111111111111111111022",
"0111111111111111111111111111111111110222",
"0111111111111111111111111111111111102222",
"0111111111111111111111111111111111022222",
"0111111111111111111111111111111110222222",
"0111111110222222222222222222222222222222",
"0111111110222222222222222222222222222222",
"0111111110222222222222222222222222222222",
"0111111110222222222222222222222222222222",
"0111111110222222222222222222222222222222",
"0111111110222222222222222222222222222222",
"0111111110222222222222222222222222222222",
"0111111110222222222222222222222222222222",
"0111111110222222222222222222222222222222",
"0111111110222222222222222222222222222222",
"0111111110222222222222222222222222222222",
"0111111110222222222222222222222222222222",
"0111111110222222222222222222222222222222",
"0111111110222222222222222222222222222222",
"0111111110222222222222222222222222222222",
"0111111110222222222222222222222222222222",
"0111111110222222222222222222222222222222",
"0111111110222222222222222222222222222222",
"0111111110222222222222222222222222222222",
"0111111110222222222222222222222222222222",
"0111111110222222222222222222222222222222",
"0111111110222222222222222222222222222222",
"0111111110222222222222222222222222222222",
"0111111110222222222222222222222222222222",
"0111111110222222222222222222222222222222",
"0111111110222222222222222222222222222222",
"0111111110222222222222222222222222222222",
};
