/* XPM */
static char * xpm_data[] = {
"39 63 3 1",
"0 c None",
"1 c #dedede",
"2 c #a4a4a6",
"000000111111111111111111111111110000000",
"000001111111111111111111111111110000000",
"000011111111111111111111111111112000000",
"000111111111111111111111111111111200000",
"001111111111111111111111111111111110000",
"011111111111111111111111111111111120000",
"111111111111111111111111111111111112000",
"111111111122222222222222221111111111100",
"111111111100000000000000000211111111100",
"111111111000000000000000000111111111120",
"111111110000000000000000000021111111111",
"111111110000000000000000000001111111111",
"111111110000000000000000000002111111111",
"111111110000000000000000000002111111111",
"111111110000000000000000000002111111111",
"111111110000000000000000000002111111111",
"111111110000000000000000000002111111111",
"111111110000000000000000000002111111111",
"111111110000000000000000000002111111111",
"111111110000000000000000000002111111111",
"111111110000000000000000000002111111111",
"111111110000000000000000000002111111111",
"111111110000000000000000000002111111111",
"111111110000000000000000000002111111111",
"111111110000000000000000000002111111111",
"111111110000000000000000000002111111111",
"111111110000000000000000000002111111111",
"111111110000000000000000000002111111111",
"111111110000000000000000000002111111111",
"111111110000000000000000000002111111111",
"111111110000000000000000000002111111111",
"111111110000000000000000000002111111111",
"111111110000000000000000000002111111111",
"111111110000000000000000000002111111111",
"111111110000000000000000000002111111111",
"111111110000000000000000000002111111111",
"111111110000000000000000000002111111111",
"111111110000000000000000000002111111111",
"111111110000000000000000000002111111111",
"111111110000000000000000000002111111111",
"111111110000000000000000000002111111120",
"111111110000000000000000000002111111200",
"111111110000000000000000000002111112000",
"111111110000000000000000111102111120000",
"111111110000000000000001111202111200000",
"111111110000000000000011111122112000000",
"111111110000000000001111111112120000000",
"111111110000000000002111111111200000000",
"111111112000000000001111111111200000000",
"111111111100000000000211111111110000000",
"211111111100000000000021111111120000000",
"011111111121111111111111111111112000000",
"011111111111111111111111111111111100000",
"002111111111111111111111111111111100000",
"000111111111111111111111111111111120000",
"000111111111111111111111111111111111000",
"000021111111111111111111111111111111000",
"000002111111111111111111111111111111200",
"000001111111111111111111111111111111110",
"000000000000000000000000000021111111100",
"000000000000000000000000000011111120000",
"000000000000000000000000000001111100000",
"000000000000000000000000000000220000000",
};
