/* XPM */
static char * xpm_data[] = {
"39 59 3 1",
"0 c #dedede",
"1 c #b2b3b4",
"2 c None",
"000000000000000000000000000001222222222",
"000000000000000000000000000000022222222",
"000000000000000000000000000000022222222",
"000000000000000000000000000000012222222",
"000000000000000000000000000000000222222",
"000000000000000000000000000000000222222",
"000000000000000000000000000000000122222",
"000000001111111111111111000000000002222",
"000000002222222222222222210000000000222",
"000000002222222222222222220000000001222",
"000000002222222222222222220000000000122",
"000000002222222222222222222100000000002",
"000000002222222222222222222200000000002",
"000000002222222222222222222200000000001",
"000000002222222222222222222221000000001",
"000000002222222222222222222222000000001",
"000000002222222222222222222222000000001",
"000000002222222222222222222222000000001",
"000000002222222222222222222222000000001",
"000000002222222222222222222222000000001",
"000000002222222222222222222222000000001",
"000000002222222222222222222220000000001",
"000000002222222222222222222200000000001",
"000000002222222222222222222000000000002",
"000000001111111111111111110000000000022",
"000000000000000000000000000000000000222",
"000000000000000000000000000000000002222",
"000000000000000000000000000000000022222",
"000000000000000000000000000000000222222",
"000000000000000000000000000000000222222",
"000000002200000000000000000000002222222",
"000000002222100000000000000000022222222",
"000000002222222222222200000000012222222",
"000000002222222222222200000000000222222",
"000000002222222222222221000000000222222",
"000000002222222222222222000000000122222",
"000000002222222222222222000000000002222",
"000000002222222222222222210000000000222",
"000000002222222222222222220000000001222",
"000000002222222222222222220000000000122",
"000000002222222222222222222100000000002",
"000000002222222222222222222210000000002",
"000000002222222222222222222200000000001",
"000000002222222222222222222221000000001",
"000000002222222222222222222222000000001",
"000000002222222222222222222222000000001",
"000000002222222222222222222222000000001",
"000000002222222222222222222222000000001",
"000000002222222222222222222222000000001",
"000000002222222222222222222222000000001",
"000000002222222222222222222222000000001",
"000000002222222222222222222222000000001",
"000000002222222222222222222222000000001",
"000000002222222222222222222222000000001",
"000000002222222222222222222222000000001",
"000000002222222222222222222222000000001",
"000000002222222222222222222222000000001",
"000000002222222222222222222222000000001",
"000000002222222222222222222222000000001",
};
