/* XPM */
static char * xpm_data[] = {
"40 59 3 1",
"0 c None",
"1 c #6b6c6f",
"2 c #dedede",
"0000001222222222222222222222222200000000",
"0000012222222222222222222222222221000000",
"0000122222222222222222222222222220000000",
"0001222222222222222222222222222222000000",
"0012222222222222222222222222222222200000",
"0122222222222222222222222222222222200000",
"1222222222222222222222222222222222221000",
"2222222222200000000000000002222222222000",
"2222222222000000000000000000022222221000",
"2222222221000000000000000000122222210000",
"2222222200000000000000000000002222100000",
"2222222200000000000000000000000221000000",
"2222222200000000000000000000000210000000",
"2222222200000000000000000000000000000000",
"2222222200000000000000000000000000000000",
"2222222200000000000000000000000000000000",
"2222222200000000000000000000000000000000",
"2222222200000000000000000000000000000000",
"2222222200000000000000000000000000000000",
"2222222200000000000000000000000000000000",
"2222222220000000000000000000000000000000",
"2222222220000000000000000000000000000000",
"1222222222100000000000000000000000000000",
"0022222222200000000000000000000000000000",
"0022222222201111111111111111111110000000",
"0012222222222222222222222222222220000000",
"0000222222222222222222222222222222100000",
"0000222222222222222222222222222222200000",
"0000122222222222222222222222222222200000",
"0000002222222222222222222222222222221000",
"0000002222222222222222222222222222222000",
"0000001222222222222222222222222222222000",
"0000000000000000000000000000122222222210",
"0000000000000000000000000000002222222220",
"0000000000000000000000000000002222222221",
"0000000000000000000000000000000222222221",
"0000000000000000000000000000000222222221",
"0000000000000000000000000000000222222221",
"0000000000000000000000000000000222222221",
"0000000000000000000000000000000222222221",
"0000000000000000000000000000000222222221",
"0000000000000000000000000000000222222221",
"0000000000000000000000000000000222222221",
"0000000000000000000000000000000222222221",
"0000000000000000000000000000000222222221",
"0000000000000000000000000000000222222221",
"0000000000000000000000000000000222222221",
"0000000000000000000000000000000222222221",
"0000021000000000000000000000000222222221",
"0000222000000000000000000000000222222221",
"0002222000000000000000000000000222222221",
"0022222201111111111111111111122222222221",
"0222222222222222222222222222222222222221",
"2222222222222222222222222222222222222210",
"1222222222222222222222222222222222222100",
"0022222222222222222222222222222222220000",
"0002222222222222222222222222222222200000",
"0012222222222222222222222222222222000000",
"0000222222222222222222222222222220000000",
};
