/* XPM */
static char * xpm_data[] = {
"44 59 3 1",
"0 c #b5b6b7",
"1 c #dededf",
"2 c None",
"01111111111111111111111111111111111111111111",
"01111111111111111111111111111111111111111111",
"01111111111111111111111111111111111111111111",
"01111111111111111111111111111111111111111111",
"01111111111111111111111111111111111111111111",
"01111111111111111111111111111111111111111111",
"01111111111111111111111111111111111111111111",
"20000000000000011111110000000000000000000000",
"22222222222222221111110222222222222222222222",
"22222222222222220111111122222222222222222222",
"22222222222222222111111110222222222222222222",
"22222222222222222011111111122222222222222222",
"22222222222222222211111111122222222222222222",
"22222222222222222201111111122222222222222222",
"22222222222222222201111111122222222222222222",
"22222222222222222201111111122222222222222222",
"22222222222222222201111111122222222222222222",
"22222222222222222201111111122222222222222222",
"22222222222222222201111111122222222222222222",
"22222222222222222201111111122222222222222222",
"22222222222222222201111111122222222222222222",
"22222222222222222201111111122222222222222222",
"22222222222222222201111111122222222222222222",
"22222222222222222201111111122222222222222222",
"22222222222222222201111111122222222222222222",
"22222222222222222201111111122222222222222222",
"22222222222222222201111111122222222222222222",
"22222222222222222201111111122222222222222222",
"22222222222222222201111111122222222222222222",
"22222222222222222201111111122222222222222222",
"22222222222222222201111111122222222222222222",
"22222222222222222201111111122222222222222222",
"22222222222222222201111111122222222222222222",
"22222222222222222201111111122222222222222222",
"22222222222222222201111111122222222222222222",
"22222222222222222201111111122222222222222222",
"22222222222222222201111111122222222222222222",
"22222222222222222201111111122222222222222222",
"22222222222222222201111111122222222222222222",
"22222222222222222201111111122222222222222222",
"22222222222222222201111111122222222222222222",
"22222222222222222201111111122222222222222222",
"22222222222222222201111111122222222222222222",
"22222222222222222201111111122222222222222222",
"22222222222222222201111111122222222222222222",
"22222222222222222201111111122222222222222222",
"22222222222222222201111111122222222222222222",
"22222222222222222201111111122222222222222222",
"22222222222222222201111111122222222222222222",
"22222222222222222201111111122222222222222222",
"22222222222222222201111111122222222222222222",
"22222222222222222201111111122222222222222222",
"22222222222222222201111111122222222222222222",
"22222222222222222201111111122222222222222222",
"22222222222222222201111111122222222222222222",
"22222222222222222201111111122222222222222222",
"22222222222222222201111111122222222222222222",
"22222222222222222201111111122222222222222222",
"22222222222222222201111111122222222222222222",
};
