/* XPM */
static char * xpm_data[] = {
"40 59 3 1",
"0 c #6e6f72",
"1 c #dddddd",
"2 c None",
"0111111110222222222222222222222111111111",
"0111111110222222222222222222222111111111",
"0111111110222222222222222222222111111111",
"0111111110222222222222222222222111111111",
"0111111110222222222222222222222111111111",
"0111111110222222222222222222222111111111",
"0111111110222222222222222222222111111111",
"0111111110222222222222222222222111111111",
"0111111110222222222222222222222111111111",
"0111111110222222222222222222222111111111",
"0111111110222222222222222222222111111111",
"0111111110222222222222222222222111111111",
"0111111110222222222222222222222111111111",
"0111111110222222222222222222222111111111",
"0111111110222222222222222222222111111111",
"0111111110222222222222222222222111111111",
"0111111110222222222222222222222111111111",
"0111111110222222222222222222222111111111",
"0111111110222222222222222222222111111111",
"0111111110222222222222222222222111111111",
"0111111110222222222222222222222111111111",
"0111111110222222222222222222222111111111",
"0111111110222222222222222222222111111111",
"0111111110222222222222222222222111111111",
"0111111110222222222222222222222111111111",
"0111111110222222222222222222222111111111",
"0111111110222222222222222222222111111111",
"0111111110222222222222222222222111111111",
"0111111110222222222222222222222111111111",
"0111111110222222222222222222222111111111",
"0111111110222222222222222222222111111111",
"0111111110222222222222222222222111111111",
"0111111110222222222222222222222111111111",
"0111111110222222222222222222222111111111",
"0111111110222222222222222222222111111111",
"0111111110222222222222222222222111111111",
"0111111110222222222222222222222111111111",
"0111111110222222222222222222222111111111",
"0111111110222222222222222222222111111111",
"0111111110222222222222222222222111111111",
"0111111110222222222222222222222111111111",
"0111111110222222222222222222222111111111",
"0111111110222222222222222222222111111111",
"0111111110222222222222222222222111111111",
"0111111110222222222222222222222111111111",
"0111111110222222222222222222222111111111",
"0111111110222222222222222222222111111111",
"0111111111222222222222222222222111111111",
"0111111111022222222222222222222111111111",
"2111111111122222222222222222220111111111",
"2011111111112222222222222222201111111111",
"2211111111111000000000000000111111111111",
"2221111111111111111111111111111111111111",
"2220111111111111111111111111111111111111",
"2222111111111111111111111111111111111111",
"2222211111111111111111111111111111111111",
"2222221111111111111111111111110111111111",
"2222220111111111111111111111122111111111",
"2222222111111111111111111110222111111111",
};
