/* XPM */
static char * xpm_data[] = {
"39 59 3 1",
"0 c #dedede",
"1 c None",
"2 c #6a6b6d",
"000000001111111111111111111112000000002",
"000000001111111111111111111112000000002",
"000000001111111111111111111112000000002",
"000000001111111111111111111112000000002",
"000000001111111111111111111112000000002",
"000000001111111111111111111112000000002",
"000000001111111111111111111112000000002",
"000000001111111111111111111112000000002",
"000000001111111111111111111112000000002",
"000000001111111111111111111112000000002",
"000000001111111111111111111112000000002",
"000000001111111111111111111112000000002",
"000000001111111111111111111112000000002",
"000000001111111111111111111112000000002",
"000000001111111111111111111112000000002",
"000000001111111111111111111112000000002",
"000000001111111111111111111112000000002",
"000000001111111111111111111112000000002",
"000000001111111111111111111112000000002",
"000000001111111111111111111112000000002",
"000000001111111111111111111112000000002",
"000000001111111111111111111112000000002",
"000000001111111111111111111112000000002",
"000000001111111111111111111112000000002",
"000000001111111111111111111112000000002",
"000000001111111111111111111112000000002",
"000000001111111111111111111112000000002",
"000000001111111111111111111112000000002",
"000000001111111111111111111112000000002",
"000000001111111111111111111112000000002",
"000000001111111111111111111112000000002",
"000000001111111111111111111112000000002",
"000000001111111111111111111112000000002",
"000000001111111111111111111112000000002",
"000000001111111111111111111112000000002",
"000000001111111111111111111112000000002",
"000000001111111111111111111112000000002",
"000000001111111111111111111111000000002",
"000000002111111111111111111110000000002",
"000000000111111111111111111100000000002",
"000000000111111111111111111000000000011",
"200000000021111111111111120000000000111",
"110000000001111111111111200000000001111",
"110000000001111111111112000000000011111",
"112000000000211111111120000000000111111",
"111100000000011111111200000000001111111",
"111100000000011111112000000000011111111",
"111120000000002111120000000000111111111",
"111111000000000111200000000001111111111",
"111111000000000112000000000001111111111",
"111111200000000020000000000011111111111",
"111111110000000000000000000111111111111",
"111111110000000000000000002111111111111",
"111111112000000000000000021111111111111",
"111111111100000000000000211111111111111",
"111111111100000000000002111111111111111",
"111111111120000000000021111111111111111",
"111111111111000000000211111111111111111",
"111111111111000000002111111111111111111",
};
