/* XPM */
static char * xpm_data[] = {
"43 58 3 1",
"0 c #dededf",
"1 c #6f7073",
"2 c None",
"0000000012222222222222222222222220000000001",
"0000000012222222222222222222222220000000001",
"0000000012222222222222222222222220000000001",
"0000000012222222222222222222222220000000001",
"0000000012222222222222222222222220000000001",
"0000000012222222222222222222222220000000001",
"0000000012222222222222222222222220000000001",
"0000000012222222222222222222222220000000001",
"0000000012222222222222222222222220000000001",
"0000000012222222222222222222222220000000001",
"0000000012222222222222222222222220000000001",
"0000000012222222222222222222222220000000001",
"0000000012222222222222222222222220000000001",
"0000000012222222222222222222222220000000001",
"0000000012222222222222222222222220000000001",
"0000000012222222222222222222222220000000001",
"0000000012222222222222222222222220000000001",
"0000000012222222222222222222222220000000001",
"0000000012222222222222222222222220000000001",
"0000000012222222222222222222222220000000001",
"0000000012222222222222222222222220000000001",
"0000000012222222222222222222222220000000001",
"0000000012222222111111111122222220000000001",
"0000000012222222100000000122222220000000001",
"0000000012222222100000000122222220000000001",
"0000000012222222100000000122222220000000001",
"0000000012222222100000000122222220000000001",
"0000000012222222100000000122222220000000001",
"0000000012222222100000000122222220000000001",
"0000000012222222100000000122222220000000001",
"0000000012222222100000000122222220000000001",
"0000000012222222100000000122222220000000001",
"0000000012222222100000000122222220000000001",
"0000000012222222100000000122222220000000001",
"0000000012222222100000000122222220000000001",
"0000000012222222100000000122222220000000001",
"0000000012222222100000000122222220000000001",
"0000000012222222100000000122222220000000001",
"0000000012222222100000000122222220000000001",
"0000000012222222100000000122222220000000001",
"0000000012222222100000000122222220000000001",
"0000000012222222100000000122222220000000001",
"0000000012222222100000000122222220000000001",
"0000000012222222100000000022222220000000001",
"0000000012222222100000000002222220000000001",
"0000000002222222000000000001222220000000001",
"0000000001222220000000000000222220000000001",
"0000000000222200000000000000022220000000001",
"2000000000122000000000000000012200000000001",
"2100000000020000000000000000002000000000001",
"2200000000000000000000000000000000000000002",
"2220000000000000000000000000000000000000022",
"2221000000000000000001000000000000000000222",
"2222000000000000000022100000000000000002222",
"2222200000000000000122200000000000000022222",
"2222210000000000001222210000000000000222222",
"2222220000000000012222220000000000002222222",
"2222222000000000122222222000000000022222222",
};
