/* XPM */
static char * xpm_data[] = {
"39 57 3 1",
"0 c #a1a1a2",
"1 c #dedede",
"2 c None",
"011111111122222222222222222222111111110",
"011111111122222222222222222222111111110",
"011111111122222222222222222222111111110",
"011111111122222222222222222222111111110",
"011111111122222222222222222222111111110",
"011111111122222222222222222222111111110",
"011111111122222222222222222222111111110",
"011111111122222222222222222222111111110",
"011111111122222222222222222222111111110",
"011111111122222222222222222222111111110",
"011111111122222222222222222222111111110",
"011111111122222222222222222222111111110",
"011111111122222222222222222222111111110",
"011111111122222222222222222221111111110",
"011111111122222222222222222211111111110",
"011111111122222222222222222111111111110",
"011111111122222222222222222111111111102",
"011111111122222222222222221111111111122",
"111111111102222222222222211111111111222",
"211111111111222222222222111111111112222",
"220111111111222222222221111111111122222",
"222111111111022222222201111111111222222",
"222111111111112222222011111111112222222",
"222201111111111111111111111111122222222",
"222221111111111111111111111111022222222",
"222221111111111111111111111111112222222",
"222222011111111111111111111111112222222",
"222222211111111111111111111111110222222",
"222222211111111111111111111111111122222",
"222222220111111111111111111111111122222",
"222222220111111111111111111111111102222",
"222222201111111111122222201111111111222",
"222222011111111111222222220111111111222",
"222220111111111112222222222111111111022",
"222201111111111122222222222111111111102",
"222011111111111222222222222201111111111",
"220111111111112222222222222221111111110",
"201111111111122222222222222221111111110",
"011111111111222222222222222222111111110",
"011111111102222222222222222222111111110",
"011111111022222222222222222222111111110",
"011111111122222222222222222222111111110",
"011111111122222222222222222222111111110",
"011111111122222222222222222222111111110",
"011111111122222222222222222222111111110",
"011111111122222222222222222222111111110",
"011111111122222222222222222222111111110",
"011111111122222222222222222222111111110",
"011111111122222222222222222222111111110",
"011111111122222222222222222222111111110",
"011111111122222222222222222222111111110",
"011111111122222222222222222222111111110",
"011111111122222222222222222222111111110",
"011111111122222222222222222222111111110",
"011111111122222222222222222222111111110",
"011111111122222222222222222222111111110",
"011111111122222222222222222222111111110",
};
