/* XPM */
static char * xpm_data[] = {
"40 59 3 1",
"0 c #dedede",
"1 c #aaabac",
"2 c None",
"0000000012222222222222222222221000000002",
"0000000012222222222222222222221000000002",
"0000000012222222222222222222221000000002",
"0000000012222222222222222222221000000002",
"0000000012222222222222222222221000000002",
"0000000012222222222222222222221000000002",
"0000000012222222222222222222221000000002",
"0000000002222222222222222222221000000002",
"0000000001222222222222222222221000000002",
"1000000000222222222222222222221000000002",
"2100000000122222222222222222221000000002",
"2200000000012222222222222222221000000002",
"2210000000002222222222222222221000000002",
"2221000000001222222222222222210000000002",
"2222000000000122222222222222100000000002",
"2222200000000022222222222221000000000012",
"2222210000000012222222222220000000000122",
"2222220000000001222222222200000000001222",
"2222222000000000222222222000000000012222",
"2222222100000000222222220000000000122222",
"2222222200000000012222200000000001222222",
"2222222220000000002222000000000012222222",
"2222222221000000002220000000000222222222",
"2222222222000000000100000000000222222222",
"2222222222200000000000000000002222222222",
"2222222222210000000000000000022222222222",
"2222222222220000000000000000222222222222",
"2222222222222000000000000002222222222222",
"2222222222222100000000000022222222222222",
"2222222222222200000000000222222222222222",
"2222222222222220000000002222222222222222",
"2222222222222221000000002222222222222222",
"2222222222222221000000002222222222222222",
"2222222222222221000000002222222222222222",
"2222222222222221000000002222222222222222",
"2222222222222221000000002222222222222222",
"2222222222222221000000002222222222222222",
"2222222222222221000000002222222222222222",
"2222222222222221000000002222222222222222",
"2222222222222221000000002222222222222222",
"2222222222222221000000002222222222222222",
"2222222222222221000000002222222222222222",
"2222222222222221000000002222222222222222",
"2222222222222221000000002222222222222222",
"2222222222222221000000002222222222222222",
"2222222222222221000000002222222222222222",
"2222222222222221000000002222222222222222",
"2222222222222221000000002222222222222222",
"2222222222222221000000002222222222222222",
"2222222222222221000000002222222222222222",
"2222222222222221000000002222222222222222",
"2222222222222221000000002222222222222222",
"2222222222222221000000002222222222222222",
"2222222222222221000000002222222222222222",
"2222222222222221000000002222222222222222",
"2222222222222221000000002222222222222222",
"2222222222222221000000002222222222222222",
"2222222222222221000000002222222222222222",
"2222222222222221000000002222222222222222",
};
