/* XPM */
static char * xpm_data[] = {
"40 57 3 1",
"0 c #727476",
"1 c #dedede",
"2 c None",
"0111111111111111111111111111111111111111",
"0111111111111111111111111111111111111111",
"0111111111111111111111111111111111111111",
"0111111111111111111111111111111111111111",
"0111111111111111111111111111111111111111",
"0111111111111111111111111111111111111111",
"0222222222222222222222222222222111111111",
"2222222222222222222222222222222111111111",
"2222222222222222222222222222222111111111",
"2222222222222222222222222222222111111111",
"2222222222222222222222222222222111111111",
"2222222222222222222222222222222111111111",
"2222222222222222222222222222222111111111",
"2222222222222222222222222222222111111111",
"2222222222222222222222222222221111111111",
"2222222222222222222222222222211111111112",
"2222222222222222222222222222111111111122",
"2222222222222222222222222201111111111222",
"2222222222222222222222222011111111112222",
"2222222222222222222222220111111111122222",
"2222222222222222222222201111111111222222",
"2222222222222222222222222111111112222222",
"2222222222222222222222222011111122222222",
"2222222222222111111111111111111112222222",
"2222222222222111111111111111111112222222",
"2222222222222111111111111111111112222222",
"2222222222222111111111111111111112222222",
"2222222222222111111111111111111112222222",
"2222222222222111111111111111111112222222",
"2222222222222111111111111111111112222222",
"2222222222220211111112000000000000222222",
"2222222222222111111111222222222222222222",
"2222222222221111111111122222222222222222",
"2222222222211111111111222222222222222222",
"2222222222111111111112222222222222222222",
"2222222222111111111102222222222222222222",
"2222222221111111111022222222222222222222",
"2222222211111111110222222222222222222222",
"2222222111111111102222222222222222222222",
"2222221111111111022222222222222222222222",
"2222211111111110222222222222222222222222",
"2222111111111102222222222222222222222222",
"2221111111111022222222222222222222222222",
"2211111111110222222222222222222222222222",
"0111111111102222222222222222222222222222",
"0111111111022222222222222222222222222222",
"0111111112222222222222222222222222222222",
"0111111110222222222222222222222222222222",
"0111111110222222222222222222222222222222",
"0111111110222222222222222222222222222222",
"0111111112000000000000000000000000000000",
"0111111111111111111111111111111111111111",
"0111111111111111111111111111111111111111",
"0111111111111111111111111111111111111111",
"0111111111111111111111111111111111111111",
"0111111111111111111111111111111111111111",
"0111111111111111111111111111111111111111",
};
