/* XPM */
static char * xpm_data[] = {
"64 64 17 1",
"0 c None",
"1 c #8c8c8c",
"2 c #545454",
"3 c #383838",
"4 c #d0d0d0",
"5 c #b4b4b4",
"6 c #646464",
"7 c #989898",
"8 c #fcfcfc",
"9 c #dcdcdc",
"a c #a8a8a8",
"b c #7c7c7c",
"c c #707070",
"d c #fc9c60",
"e c #484848",
"f c #2c2c2c",
"g c #202020",
"0000000000000000000000000000000000000000000000000000000000000000",
"0000000000000000000000000000000000000000000000000000000000000000",
"0000000000000000000000000000000000000000000000000000000000000000",
"0000000000000000000000000000000000000000000000000000000000000000",
"0000000000000000000000000000000000000000000000000000000000000000",
"0000000000000000000000000000000000000000000000000000000000000000",
"0000000000000000000000000000000000000000000000000000000000000000",
"0000000000000000000000000000000000000000000000000000000000000000",
"0000000000000000000000000000000000000000000000000000000000000000",
"0000000000000000000000000000000000000000000000000000000000000000",
"0000000000000000000000000000000000000000000000000000000000000000",
"0000000000000000000000000000000000000000000000000000000000000000",
"0000000000000000000000000000000000000000000000000000000000000000",
"0000000000000000000000000000000000000000000000000000000000000000",
"0000000000000000000000000000000000000000000000000000000000000000",
"0000000000000000000000000000000000000000000000000000000000000000",
"0000000000000000000000000000000000000000000000000000000000000000",
"0000000000000000000000000000000000000000000000000000000000000000",
"0000000000000000000000000000000000000000000000000000000000000000",
"0000000000000000000000000000000000000000000000000000000000000000",
"0000000000000000000000000000000000000000000000000000000000000000",
"0000000000000000000000000000000000000000000000000000000000000000",
"0000000000000000000000000000000000000000000000000000000000000000",
"0000000000000000000000000000000000000000000000000000000000000000",
"0000000000000000000000000000000000000000000000000000000000000000",
"0000000000000000000000000000000000000000000000000000000000000000",
"0000000000000000000000000000000000000000000000000000000000000000",
"0000000000000000000000000000000000000000000000000000000000000000",
"0000000000000000000000000000000000000000000000000000000000000000",
"0000000000000000000000000000000000000000000000000000000000000000",
"0000000000000000000000000000000000000000000000000000000000000000",
"0000000000000000000000000000000000000000000000000000000000000000",
"0000000000000000000000000000000000000000000000000000000000000000",
"0000000000000000000000000000000000000000000000000000000000000000",
"0000000000000000000000000000000000000000000000000000000000000000",
"0000000000000000000000000000000000000000000000000000000000000000",
"0000000000000000000000000000000000000000000000000000000000000000",
"0000000000000000000000000000000000000000000000000000000000000000",
"0000000000000000000000000000000000000000000000000000000000000000",
"0000000000000000000000000000000000000000000000000000000000000000",
"0000000000000000000000000000000000000000000000000000000000000000",
"0000000000000000000000000000000000000000000000000000000000000000",
"0000000000000000000000000000000000000000000000000000000000000000",
"0000000000000000000000000000000121000000000000000000000000000000",
"0000000000000000000000000000000232000000000000000000000000000000",
"0000000000000000000000000000000222000000000000000000000000000000",
"0000000000000000000000000000000456000000000000000000000000000000",
"0000000000000000000000000000007896200000000000000000000000000000",
"0000000000000000000000000000007891200000000000000000000000000000",
"000000000000000000000000000000a55b200000000000000000000000000000",
"000000000000000000000000000000989a200000000000000000000000000000",
"00000000000000000000000000000a1bbb620000000000000000000000000000",
"00000000000000000000000000000189a1620000000000000000000000000000",
"0000000000000000000000000000095333a20000000000000000000000000000",
"0000000000000000000000000000593ccc3b2000000000000000000000000000",
"0000000000000000000000000000a26666632000000000000000000000000000",
"0000000000000000000000000005a189aac62200000000000000000000000000",
"000000000000000000000000000a98511122c200000000000000000000000000",
"000000000000000000000000000a5a89aab63200000000000000000000000000",
"000000000000000000000000dd1a988ceebb6300000000000000000000000000",
"00000000000000000000b177dd1a98ca2aeb1630000000000000000000000000",
"00000000000000000bb777777ba49afgggfeab20000000000000000000000000",
"000000000000000b1777771b11a48bgggggea123000000000000000000000000",
"00000000000006b1711bb17b1aaa82ggggg2aa62000000000000000000000000",
};
