/* XPM */
static char * north_xpm[] = {
"64 64 237 2",
"  	c #7C7C7C",
". 	c #483818",
"+ 	c #543C1C",
"@ 	c #5C4020",
"# 	c #744C28",
"$ 	c #403018",
"% 	c #545454",
"& 	c #646464",
"* 	c #707070",
"= 	c #2C2C2C",
"- 	c #484848",
"; 	c #4C4C4C",
"> 	c #5C5C5C",
", 	c #6C4824",
"' 	c #382C14",
") 	c #8C8C8C",
"! 	c #A8A8A8",
"~ 	c #989898",
"{ 	c #404040",
"] 	c #383838",
"^ 	c #343434",
"/ 	c #534732",
"( 	c #96918C",
"_ 	c #E6E6E5",
": 	c #FEFEFE",
"< 	c #F9F9F9",
"[ 	c #D2D1CF",
"} 	c #675E51",
"| 	c #726A60",
"1 	c #D8D7D6",
"2 	c #FDFDFD",
"3 	c #F5F4F4",
"4 	c #CCCCCC",
"5 	c #FAFAFA",
"6 	c #D5D5D5",
"7 	c #7E7E7E",
"8 	c #50422C",
"9 	c #928E88",
"0 	c #E0DFDE",
"a 	c #FFFFFF",
"b 	c #D4D3D1",
"c 	c #7B746C",
"d 	c #4A3B1E",
"e 	c #6C6761",
"f 	c #D9D9D8",
"g 	c #F5F5F5",
"h 	c #C4C4C4",
"i 	c #969696",
"j 	c #F7F7F7",
"k 	c #D4D4D4",
"l 	c #747474",
"m 	c #676767",
"n 	c #908C88",
"o 	c #E2E1E0",
"p 	c #FBFBFB",
"q 	c #D5D3D2",
"r 	c #817B73",
"s 	c #4C3D23",
"t 	c #DADADA",
"u 	c #F6F6F6",
"v 	c #C7C7C7",
"w 	c #7D7D7D",
"x 	c #D2D2D2",
"y 	c #696969",
"z 	c #7F7F7F",
"A 	c #E3E3E3",
"B 	c #D6D5D3",
"C 	c #837D76",
"D 	c #42331E",
"E 	c #787878",
"F 	c #CDCDCD",
"G 	c #757575",
"H 	c #727272",
"I 	c #A3A3A3",
"J 	c #E5E5E5",
"K 	c #D5D4D3",
"L 	c #7F7C77",
"M 	c #767676",
"N 	c #A9A9A9",
"O 	c #808080",
"P 	c #8E8E8E",
"Q 	c #F8F8F8",
"R 	c #FCFCFC",
"S 	c #626262",
"T 	c #717171",
"U 	c #D7D6D5",
"V 	c #3D3320",
"W 	c #5D5D5D",
"X 	c #D7D7D7",
"Y 	c #E0E0E0",
"Z 	c #494949",
"` 	c #737373",
" .	c #A6A6A6",
"..	c #E1E1E1",
"+.	c #DEDEDE",
"@.	c #818181",
"#.	c #4A4A4A",
"$.	c #7B7B7B",
"%.	c #E2E2E2",
"&.	c #919191",
"*.	c #4D4D4D",
"=.	c #E1DEDC",
"-.	c #FDFDFC",
";.	c #DDDAD9",
">.	c #887C72",
",.	c #D1D1D1",
"'.	c #E4E4E4",
").	c #303030",
"!.	c #9C9C9C",
"~.	c #E0DCDA",
"{.	c #DEDCDA",
"].	c #92877F",
"^.	c #695441",
"/.	c #604D3A",
"(.	c #838383",
"_.	c #606060",
":.	c #575757",
"<.	c #797979",
"[.	c #D0D0D0",
"}.	c #E6E6E6",
"|.	c #979797",
"1.	c #3F3F3F",
"2.	c #424242",
"3.	c #F7F6F6",
"4.	c #D0CCCA",
"5.	c #B9B3B0",
"6.	c #B7B1AD",
"7.	c #B2AFAC",
"8.	c #C0C0C0",
"9.	c #BCBCBC",
"0.	c #B5B5B5",
"a.	c #B2B2B2",
"b.	c #C5C5C5",
"c.	c #474747",
"d.	c #6B6B6B",
"e.	c #9D9D9D",
"f.	c #6F6F6F",
"g.	c #D9D9D9",
"h.	c #F2F2F2",
"i.	c #636363",
"j.	c #505050",
"k.	c #A5A5A5",
"l.	c #B9B9B9",
"m.	c #565656",
"n.	c #EAEAEA",
"o.	c #A4A4A4",
"p.	c #EBEBEB",
"q.	c #BBBBBB",
"r.	c #BEBEBE",
"s.	c #CACACA",
"t.	c #C8C8C8",
"u.	c #EEEEEE",
"v.	c #80502C",
"w.	c #858585",
"x.	c #939393",
"y.	c #B1B1B1",
"z.	c #ADADAD",
"A.	c #AEAEAE",
"B.	c #B0B0B0",
"C.	c #909090",
"D.	c #A1A1A1",
"E.	c #9E9E9E",
"F.	c #4E4E4E",
"G.	c #4B4B4B",
"H.	c #444444",
"I.	c #414141",
"J.	c #959595",
"K.	c #C3C3C3",
"L.	c #F0F0F0",
"M.	c #F3F3F3",
"N.	c #EDEDED",
"O.	c #515151",
"P.	c #8F8F8F",
"Q.	c #848484",
"R.	c #525252",
"S.	c #5A5A5A",
"T.	c #5F5F5F",
"U.	c #555555",
"V.	c #8B8B8B",
"W.	c #8A7568",
"X.	c #7A6A5E",
"Y.	c #875D43",
"Z.	c #736052",
"`.	c #7C6350",
" +	c #6E5A4A",
".+	c #7C6D61",
"++	c #333333",
"@+	c #3B3B3B",
"#+	c #656565",
"$+	c #929292",
"%+	c #AFAFAF",
"&+	c #9F9F9F",
"*+	c #AAAAAA",
"=+	c #C6C6C6",
"-+	c #C0B9B4",
";+	c #9A918A",
">+	c #AC978E",
",+	c #B9B0AA",
"'+	c #A69F99",
")+	c #B5AFAB",
"!+	c #ABA49F",
"~+	c #B4AEAA",
"{+	c #5E5E5E",
"]+	c #CECECE",
"^+	c #BABABA",
"/+	c #B7B7B7",
"(+	c #CEC8C5",
"_+	c #C1BCB8",
":+	c #D0C6C2",
"<+	c #D3CDCA",
"[+	c #C2BEBA",
"}+	c #DAD8D6",
"|+	c #D8D5D4",
"1+	c #ABA39E",
"2+	c #616161",
"3+	c #5B5B5B",
"4+	c #878787",
"5+	c #B6B6B6",
"6+	c #A69A92",
"7+	c #B2ACA8",
"8+	c #AEA8A3",
"9+	c #B6AAA4",
"0+	c #B4A39B",
"a+	c #A49C97",
"b+	c #ADA6A1",
"c+	c #7D6E62",
"d+	c #4F4F4F",
"e+	c #775A43",
"f+	c #6F5C4C",
"g+	c #6A5643",
"h+	c #785B45",
"i+	c #68523F",
"j+	c #67503C",
"k+	c #5F4529",
"l+	c #202020",
"m+	c #282828",
"n+	c #1C1C1C",
"      . + @ @ # @ @ @ @ @ @ @ @ @ @ @ @ @ @ + $ . @ @ @ @ + + . % &     * * * * = = = = = = = - & * % & % % ; ; ; ; % > > & *   ",
"  * * % . + @ # @ @ @ @ @ @ @ + @ @ @ @ @ @ + $ . @ @ @ + . . % &     *   *     - = = = = = - & * % & % ; ; % % > & & & & & & * ",
"* * * & % . + , @ @ @ @ @ @ @ @ + + @ @ @ @ + $ . @ + + . - % & & - @ @ @ @ - & & - = = = - & * % & % ; % > & & & & & & & & & & ",
"% *   * & % . , @ @ @ @ @ @ @ @ + + @ @ @ @ . $ . + . . % &   - @ @ . . $ . $ . & & - - - & * % & & & & & & > % % ; ; ; ; ; ; ; ",
"; % * *   & . , @ @ @ @ @ @ @ @ @ @ @ @ @ + . $ . . % &     - @ . . . . $ . $ . -   & & & * % & > > > > > > > > > > > > > > > > ",
"; ; % * * * . + @ @ @ @ @ + @ @ @ @ @ @ + $ $ . % &     & @ @ . . . . . $ . $ $ ' & ) ! * % & % ; ; ; ; ; ; ; ; ; ; ; ; ; ; ; ; ",
"; ; ; % *   % . + @ @ @ @ @ @ @ @ @ @ + $ $ - % &     - @ . . . . . . . $ $ . ' ' & !   % & % ; ; ; ; ; - ; ; ; ; ; ; ; ; ; ; ; ",
"; ; ; ; % *   % . + @ @ @ @ @ @ @ + + $ . % & &   & @ @ . . . . . . . . $ $ . ' ' & ~   & % ; ; ; ; ; ; ; ; ; ; ; ; ; ; ; ; ; ; ",
"; ; ; ; - %   & % . + @ @ @ @ + + $ $ % & &     - @ + . . . . . . $ . . $ ' . ' ' & ~ & % ; ; ; ; - ; ; ; ; ; ; ; ; ; - ; ; ; ; ",
"; ; ; ; - -     & % . + + + + $ $ % &       & @ @ + . . . . . . . $ . . $ ' $ ' ' & ) & % ; ; ; - ; ; ; ; ; ; ; ; ; ; ; ; ; ; ; ",
"; ; ; ; - -   *   & % $ $ $ $ - % &     & - @ + + . . . . . . . . . . . . ' $ ' { & ) & > ; - ; ; ; - ; ; ; ; ; ; ; ; ; ; ; ; ; ",
"; ; ; ; - - * *     & % % % % % &     & @ @ + . . . + . . . . . . ' . . . ' ' ' ; *   & > ; ; ; - ; ; ; ; ; ; - - ; ; ; ; ; ; - ",
"; ; ; ; - ] * * & % % % & * ~ ~ ) * & @ + + . + + . . . . . . . . ' . . . ' ' ' % * ) & % ; ; ; ; ; ; ; ; ; ; - - ; - - - - ; ; ",
"; ; ; - ] &   & % % % % - & ~ ) ) & @ . + + . + + . . . . . . . . ' . . . ' ' ' & *   & % ; ; ; ; ; ; ; ; ; ; ; ; ; - - - - ; ; ",
"; ; - ] &   * % % % % % - - * )   @ + . @ . . . . . . . . . . . . ' . . . ' ' { &     & % ; ; ; ; ; ; ; ; ; ; ; ; ; - - - - ; ; ",
"; - ] &     & % % % % % - - - & % @ . @ + . . . . . . . . . . . $ ' . . . ' ' ; *     & % ; ; ; ; ; ; ; ; ; ; ; ; ; - - - - ; - ",
"- ] &     * & % % % % % { ; % - & @ . @ . . + . . . . . . . . . $ ' . . $ ' ' %       % ; ; ; ; ; ; ; ; ; ; ; ; ; ; ; ; ; ; - ] ",
"] & & - - & * % % % % ; { % % & & @ . + . . . . . . . . . . . . ' ' . . $ ' ' & , @ & % ; ; ; ; ; ; ; ; - ; ; ; ; ; ; ; ; - ] { ",
"& & - + + - & & % % % { { % % % * @ + + . . . . . . . . . . . . ' $ . $ ' $ > , @ @ % & { ; ; ; ; ; ; ; ; ; ; ; ; ; ; - { ] { { ",
"& - + @ . + -   - % { { { % % % & & + + . . . . . . . . . . . $ ' $ ' ' $ & , @ @ @ . & & { - ; ; ; ; ; ; ; ; ; - { ] ^ ^ ] { & ",
"- + @ . . . $ & * - { % { % % % -   - + . . . . . . . . . . $ ' ' ' ' ; &   . . . . . * * & { { { - - - - - { { ] ^ ] { ] % & & ",
"+ @ . . . . $ -   & - % { % % % - * & $ . / ( _ : : < [ } | 1 2 : 3 4 5 : : 2 6 7 & & ) ) & & { ] ^ ^ ^ ^ ^ ^ ^ ] { { ] % &   - ",
"@ . . . . . $ $ & * - % { % % % ] &   - 8 9 0 : a 5 b c d e f a g h i j a a : k l %   ) ~ ~ * & % ] { { { { { { { { ] % &   - + ",
". . . + . . $ . &   & - { % % ; ] &   m n o : a p q r s ' e t u v 7 w j a a : x y { %   ~ ~ )   & % ] { { { { { ] ] % &   - + @ ",
". . . . . . $ . -     & { % ; - ] & z ! A 2 a p B C D ' ' E x F z % G j a a : x y { { %   ) ) *   & % ] ] ] ] ] ] % &   & + @ . ",
". . . . . . $ . $ &   * ] - - - ] H I J 2 a p K L ' ' ' { M N O % - P Q a a R v S { ] { *   * % %   & % ] ] ] ] % &   & - @ . . ",
". + + . . . ' . $ % *   & ] ] ] T ! J R a p U L V ' { ; > 7 W % - z X 2 a : Y ) Z { ] - & * & - - %   & % % % % &   & - + . . . ",
". + + . . . ' . $ -   ) * & & `  ...R a R +.@.; ; > >     % % #.$.k 5 a 2 %.&.*.] { ^ % & * % - - - %       ) )   * - + . . . . ",
". . . + . . ' . $ -   * ) * l ~ =.-.a R ;.>.m & & *   * % % #.E ,.< a 2 '.&.Z { ] ] ).% & & - - - - - &   ) )   * & + . . . . . ",
". . . . . $ ' . $ -   * * * !.~.2 a 2 {.].^./.(.(.E E _.:.; <.[.5 a : }.|.1.{ 2.] ] - & * % % - - - - % & * * & > % + . . + + + ",
". . . . . $ $ . $ % * ) * * J 2 a a 3.4.5.6.7.8.9.8.0.a.<._.b.5 a a j |.c.^ % d.Z ^ % *     & & & & & & &   * > % > + . . + + + ",
". . . . . ' $ $ $ %     & % 2 a a a a : : : : : : : : Q e.f.g.a a a h.i.{ j.k.l.& ).& % # # # # # # # # # . @ # > & + . . + + + ",
". . . . $ ' . $ - &   & % > 2 a a a a a a a a a a a a < e.` t a a a h.i.m. .n.x i.% * , , , @ @ @ @ @ @ @ . @ @ @   + . . . . . ",
". . . . $ ' $ - & & & % > % R : : : : : : : a a a a a < e.` t a a a h.* o.p.2 ,.S % & , @ , @ @ @ @ @ @ @ . @ @ + & + . . + . . ",
". . . . ' $ - & &   % > % % l.q.q.r.b.s.b.s.t...2 a a < e.H k < < < u.k.}.Q Q 4 _.& % v.@ , @ @ + @ @ @ @ . @ @ + & + . . . . . ",
". . . $ ' - & & * & % > % % i.i.i.i.* w.x.x.!.v R a a < e._.~ y.y.y.z.!.A.A.B.C.* * - v.@ , @ @ @ @ @ @ @ . @ @ + & $ . . . . . ",
". . . ' - & &     % > % % % % % % % % & ) ~ D.b.R a a < E.F.Z *.*.*.*.G.H.I.c.j.T * , v.@ , @ @ @ @ @ @ @ . @ @ + & - $ . . . . ",
". . $ - & & *   & % > % % % % % % % % % & ~ D.t.R a a < E.; - { { { { { ).).^ %   & , v.@ , @ @ @ @ @ @ @ + @ @ + & & - $ . . . ",
". $ - & & *   & % > % % > % % % % % - % % & J.K.L.M.h.N.|.O.m.2.{ { { { ).).).&   % , v.@ @ @ @ @ @ @ @ + + @ @ + &   & - $ . . ",
"$ - & &     * & % % % % % % % % % % % - % % P.! N o.o.o.l _.Q.R.S.> % T.O.U._.V.7 W.X.Y.Z.`. +^..+@ @ @ + @ @ @ . &     & - $ $ ",
"- & & ) )   & % % % % % > % % % % % % { % % & * T ++@+@+% #+|._.$+%+&+A.x.*+e.=+A.-+;+>+,+'+)+!+~+@ @ @ + @ @ @ . &       & - - ",
"& & ~ ~ ) & % % % % % % > % % % % % % { - % % & & - ).^ ).#+~ {+ .]+X 8.^+F v +./+(+_+:+<+[+}+|+1+@ @ + @ @ @ @ . & = = ] % & & ",
"&   ~ ~ * % % % % > > % % % % > % % % - { % % % & % - ).).2+i 3+(.|.a.4+E.o.0.5+6+7+8+9+0+a+1+b+c+@ @ + @ @ @ @ . & = = = = ] % ",
"= - ) ) & % % % > > > % % % % % % % % - { % % % % - % & % T.&.S.G.d+:.c.#.2+w w.e+f+g+h+Y.i+j+i+k+@ + @ @ @ @ @ . & = = = = l+= ",
"= l+-   % % % % > > > % % % % % % - % - { - % % % - & & % ).^ ^ ] { { ] ).&     + @ @ @ # @ @ @ @ @ @ @ @ + @ @ . & = = = = l+= ",
"= l+- * % % % % > > % % % % % % % % % - { - % % - ] & ) ) % ).^ ^ { { ^ - * * * & + @ @ , , @ @ @ @ @ @ @ @ @ @ . & = = = = l+= ",
"l+- & & % % % % % % % > % % % % % - % - { - % - ] -   ) )   % ).^ ] ] ).%   * *   & + @ @ , @ @ @ @ @ + + @ @ + . & = = = l+= = ",
"- & & & - % % > > % % % % % % % % - % - ^ - - ] - %   - . -   % ).).).).*   & ] ] & & + + @ , @ @ @ @ + + @ + . - & = = = l+= = ",
"& * * * & - % > > % % % % % % % % - % - ^ { ] - % & - + . $ -   & % % &   & ] = = ] & * & + @ @ @ @ @ @ @ + . - & & l+l+l+l+l+l+",
"    * *   & - - % % % % % % % % % - % { ^ ] - % & - + . . $ . $ -       & ] = = = = ] & * & + + @ @ @ @ + . - & *     - - - - - ",
"  *   ) ) ) & - - % % % % % % % - - % { ^ - % & - + . . . $ . $ . -     - ] = = = = = ] & * * % + + + . . - & % % % % % % &     ",
"  % , , % ) ) & - ] % % % % % % - - - ^ - % & - + . . . . $ . $ . $   & ] m+= = = m+m+= ] &   * % + . - - & & % % % % % % - &   ",
", , @ @ , , %   & - ] - % % % - - - ] - % & - + . . . . . $ . $ . $   ] = = m+= = m+m+= = ] &   * % - - &   % % % ; % % % - &   ",
"@ @ @ @ @ @ , , % & - ] - % - - ] ] - & - - + . . . . $ . $ . $ $ - & ] = = = l+m+= = = = = ] &   * & & ) & ; ; % % % % ; - &   ",
"@ + @ @ @ @ @ @ , . & - ] - - ] - % & - + @ + . . . . . . $ $ $ - & ] = = = = = l+l+= m+= = = ] &   * ) ) % ; ; % % % % ; - & , ",
"@ @ @ @ @ @ @ + @ . @ @ - ] ] - % & - + @ + . . . . . $ . $ $ $ % ] ] = = = = = m+l+l+m+= = = = ] &   ) & % % % % % % ; - - & , ",
"@ @ + + @ @ @ + @ . @ @ + - - % & - + + @ + . . . . . $ . $ $ - & ] = = m+m+= = = m+l+l+m+= = = = ] &   % % % % % % % - - % , @ ",
"@ @ + + @ @ @ + @ . + . . % % & - + . + @ . . . . . . $ . $ - & - ] = = m+m+m+= = m+l+l+l+m+= = = = ] &   % % % % % - ; - & , @ ",
"@ @ @ @ @ @ + . + $ . . % & & - + . . + @ . + . . . . $ $ $ % & ] ] = = m+m+= m+= = l+l+l+l+m+= = = = ] & & % % % ; - - % , @ @ ",
"@ @ @ @ @ @ + . . $ . %       - . . . + @ . . . . . . $ $ - & ] = ] = = = = = = = = m+l+l+m+l+m+= = = = ] & ; ; ; - ; - % , @ @ ",
"@ @ @ @ @ @ + . $ $ %         % . . . + @ . . . . . . $ - & - ] = ] = = = = = = = = m+l+l+l+m+l+m+= = = = l+& ; - % % - , @ @ @ ",
"@ @ @ @ @ @ . $ $ %   % { %   & - . . + @ . . . . . . $ % & ] = = ] = = = = m+m+= = = m+l+n+m+m+l+m+= = = l+% & % % ; & , @ @ @ ",
"@ @ @ @ @ + . $ %   % { { { %   % . . + @ . . . . . $ - & ] = = = ] = = = = m+m+= = = m+l+n+l+= l+l+m+= = l+%   ; ; & , @ @ @ @ ",
"@ @ @ @ + $ $ %     { { { { { % & . . + . . . . . $ - % & = = = = ] = = m+= = = = = = m+l+n+l+= m+l+l+m+= l+%     & & , @ @ @ @ "};
